<svg width="212" height="70" viewBox="0 0 212 70" fill="none" xmlns="http://www.w3.org/2000/svg">
<path d="M1.63708 7.4346L5.45451 3.16862C5.5767 3.03715 5.74103 2.96509 5.90956 2.96509H13.1062C13.2916 2.96509 13.4602 3.05411 13.5739 3.18981L17.6231 7.42187C17.8422 7.64663 17.8506 7.99859 17.6526 8.23603L9.97561 17.5652C9.76069 17.8281 9.37728 17.8663 9.11605 17.65C9.06971 17.6076 9.03177 17.5652 8.99807 17.5143L1.61603 8.22757C1.42642 7.99009 1.44327 7.65509 1.63708 7.4346ZM6.17923 4.19481L2.88849 7.87135L9.51211 16.204L16.3675 7.87561L12.845 4.19481H6.17923Z" fill="#2B2A29"/>
<path d="M2.09277 7.23047H17.1855V8.46022H2.09277V7.23047Z" fill="#2B2A29"/>
<path d="M8.10437 3.79604L6.58753 7.84576L10.0763 16.9544L8.93867 17.3954L5.38247 8.10444C5.31507 7.96024 5.30663 7.79062 5.36562 7.62947L6.96674 3.36353L8.10437 3.79604Z" fill="#2B2A29"/>
<path d="M12.049 3.36353L13.6459 7.62947C13.7091 7.79062 13.6965 7.96024 13.6291 8.10444L10.0771 17.3954L8.93945 16.9544L12.424 7.84576L10.9072 3.79604L12.049 3.36353Z" fill="#2B2A29"/>
<path d="M34.0407 16.2351C33.5489 16.8763 32.8672 17.3619 31.9956 17.6918C31.1241 18.0218 30.1342 18.1868 29.0261 18.1868C27.8869 18.1868 26.8784 17.9284 26.0006 17.4117C25.1228 16.895 24.4442 16.1573 23.9649 15.1986C23.4917 14.2336 23.2458 13.1099 23.2271 11.8275V10.763C23.2271 8.70857 23.719 7.10552 24.7026 5.95382C25.6862 4.79589 27.0589 4.21693 28.8207 4.21693C30.3335 4.21693 31.535 4.59046 32.4252 5.33751C33.3154 6.08456 33.8508 7.16155 34.0314 8.5685H31.7155C31.454 6.93121 30.5047 6.11257 28.8674 6.11257C27.8091 6.11257 27.0029 6.49543 26.4488 7.26116C25.901 8.02066 25.6177 9.13812 25.599 10.6135V11.6594C25.599 13.1286 25.9072 14.271 26.5235 15.0865C27.146 15.8958 28.0083 16.3005 29.1102 16.3005C30.3179 16.3005 31.177 16.0265 31.6875 15.4787V12.8173H28.886V11.0244H34.0407V16.2351ZM41.7073 9.96921C41.4085 9.91941 41.1003 9.89451 40.7828 9.89451C39.7432 9.89451 39.0428 10.2929 38.6817 11.0898V18H36.4126V7.89615H38.579L38.635 9.02606C39.1829 8.14828 39.9424 7.70939 40.9136 7.70939C41.2373 7.70939 41.505 7.75297 41.7166 7.84012L41.7073 9.96921ZM47.4035 18.1868C45.9655 18.1868 44.7982 17.7354 43.9017 16.8327C43.0115 15.9238 42.5664 14.7161 42.5664 13.2095V12.9294C42.5664 11.9209 42.7594 11.0213 43.1454 10.2307C43.5376 9.43383 44.0854 8.8144 44.7889 8.3724C45.4923 7.93039 46.2767 7.70939 47.1421 7.70939C48.5179 7.70939 49.5793 8.14828 50.3264 9.02606C51.0797 9.90385 51.4563 11.1458 51.4563 12.752V13.6671H44.8542C44.9227 14.5013 45.1997 15.1612 45.6853 15.6468C46.1771 16.1324 46.7935 16.3752 47.5343 16.3752C48.5739 16.3752 49.4206 15.955 50.0742 15.1145L51.2975 16.2818C50.8929 16.8857 50.3513 17.3557 49.6727 17.6918C49.0004 18.0218 48.244 18.1868 47.4035 18.1868ZM47.1327 9.53032C46.5102 9.53032 46.0059 9.74821 45.62 10.184C45.2402 10.6198 44.9974 11.2267 44.8916 12.0049H49.2151V11.8368C49.1653 11.0773 48.963 10.5046 48.6082 10.1186C48.2533 9.72642 47.7615 9.53032 47.1327 9.53032ZM57.6755 18.1868C56.2374 18.1868 55.0701 17.7354 54.1737 16.8327C53.2835 15.9238 52.8383 14.7161 52.8383 13.2095V12.9294C52.8383 11.9209 53.0313 11.0213 53.4173 10.2307C53.8095 9.43383 54.3573 8.8144 55.0608 8.3724C55.7643 7.93039 56.5487 7.70939 57.414 7.70939C58.7898 7.70939 59.8513 8.14828 60.5983 9.02606C61.3516 9.90385 61.7282 11.1458 61.7282 12.752V13.6671H55.1262C55.1947 14.5013 55.4717 15.1612 55.9573 15.6468C56.4491 16.1324 57.0654 16.3752 57.8062 16.3752C58.8459 16.3752 59.6925 15.955 60.3462 15.1145L61.5695 16.2818C61.1648 16.8857 60.6232 17.3557 59.9446 17.6918C59.2723 18.0218 58.5159 18.1868 57.6755 18.1868ZM57.4047 9.53032C56.7821 9.53032 56.2779 9.74821 55.8919 10.184C55.5122 10.6198 55.2694 11.2267 55.1635 12.0049H59.4871V11.8368C59.4373 11.0773 59.2349 10.5046 58.8801 10.1186C58.5253 9.72642 58.0334 9.53032 57.4047 9.53032ZM65.6035 7.89615L65.6689 9.06342C66.416 8.16073 67.3965 7.70939 68.6104 7.70939C70.7146 7.70939 71.7854 8.91401 71.8227 11.3232V18H69.5536V11.454C69.5536 10.8128 69.4135 10.3396 69.1334 10.0346C68.8594 9.72331 68.4081 9.56768 67.7793 9.56768C66.8642 9.56768 66.1825 9.98167 65.7343 10.8096V18H63.4651V7.89615H65.6035ZM74.3627 18V4.40369H78.3781C79.5796 4.40369 80.6442 4.67139 81.5717 5.20677C82.5056 5.74216 83.2277 6.50166 83.7382 7.48527C84.2487 8.46889 84.5039 9.59569 84.5039 10.8657V11.5474C84.5039 12.836 84.2456 13.969 83.7288 14.9464C83.2184 15.9238 82.4869 16.6771 81.5344 17.2063C80.5881 17.7354 79.5018 18 78.2754 18H74.3627ZM76.7253 6.30867V16.1137H78.266C79.5049 16.1137 80.4543 15.7277 81.1142 14.9558C81.7803 14.1776 82.1196 13.0632 82.132 11.6127V10.8563C82.132 9.38091 81.8114 8.25411 81.1702 7.47594C80.529 6.69776 79.5983 6.30867 78.3781 6.30867H76.7253ZM89.0516 18H86.7824V7.89615H89.0516V18ZM86.6423 5.27214C86.6423 4.92352 86.7513 4.63403 86.9692 4.40369C87.1933 4.17335 87.5108 4.05818 87.9217 4.05818C88.3325 4.05818 88.65 4.17335 88.8742 4.40369C89.0983 4.63403 89.2103 4.92352 89.2103 5.27214C89.2103 5.61454 89.0983 5.90091 88.8742 6.13125C88.65 6.35536 88.3325 6.46742 87.9217 6.46742C87.5108 6.46742 87.1933 6.35536 86.9692 6.13125C86.7513 5.90091 86.6423 5.61454 86.6423 5.27214ZM98.2029 18C98.0909 17.6825 98.0193 17.2125 97.9882 16.5899C97.596 17.1004 97.0948 17.4957 96.4847 17.7759C95.8809 18.0498 95.2396 18.1868 94.5611 18.1868C93.5899 18.1868 92.8024 17.916 92.1985 17.3743C91.6009 16.8327 91.3021 16.1479 91.3021 15.32C91.3021 14.3363 91.7098 13.5582 92.5254 12.9854C93.3471 12.4127 94.4895 12.1263 95.9524 12.1263H97.9788V10.9777C97.9788 10.2556 97.7547 9.68907 97.3065 9.27819C96.8645 8.86109 96.217 8.65254 95.3641 8.65254C94.586 8.65254 93.9416 8.85175 93.4312 9.25018C92.9207 9.64861 92.6654 10.128 92.6654 10.6882L91.5449 10.6789C91.5449 9.87583 91.9184 9.1817 92.6654 8.59651C93.4125 8.0051 94.3307 7.70939 95.4202 7.70939C96.547 7.70939 97.4341 7.99265 98.0815 8.55916C98.7352 9.11945 99.0714 9.90385 99.0901 10.9124V15.6935C99.0901 16.6709 99.1928 17.4024 99.3982 17.8879V18H98.2029ZM94.6918 17.1969C95.4388 17.1969 96.105 17.0164 96.6902 16.6553C97.2816 16.2942 97.7111 15.8118 97.9788 15.2079V12.9854H95.9805C94.8661 12.9979 93.9946 13.2033 93.3658 13.6017C92.737 13.9939 92.4226 14.5356 92.4226 15.2266C92.4226 15.7931 92.6312 16.2631 93.0483 16.6366C93.4716 17.0102 94.0195 17.1969 94.6918 17.1969ZM103.096 7.89615L103.133 9.53966C103.507 8.92957 103.974 8.472 104.534 8.16696C105.094 7.86191 105.717 7.70939 106.402 7.70939C107.996 7.70939 109.007 8.36306 109.437 9.67039C109.798 9.04163 110.28 8.55916 110.884 8.22299C111.488 7.88059 112.154 7.70939 112.882 7.70939C115.049 7.70939 116.154 8.89222 116.197 11.2579V18H115.077V11.3419C115.071 10.4392 114.875 9.77 114.489 9.33422C114.109 8.89844 113.486 8.68055 112.621 8.68055C111.818 8.693 111.139 8.95447 110.585 9.46496C110.031 9.96921 109.723 10.5855 109.661 11.3139V18H108.54V11.2579C108.534 10.3925 108.329 9.74821 107.924 9.32488C107.525 8.89533 106.909 8.68055 106.075 8.68055C105.371 8.68055 104.768 8.88288 104.263 9.28753C103.759 9.68596 103.386 10.2805 103.143 11.0711V18H102.022V7.89615H103.096ZM118.42 12.7987C118.42 11.8275 118.607 10.9528 118.98 10.1747C119.36 9.39648 119.892 8.79261 120.577 8.36306C121.268 7.92728 122.049 7.70939 122.921 7.70939C124.266 7.70939 125.355 8.18252 126.189 9.12878C127.023 10.0688 127.441 11.317 127.441 12.8734V13.1068C127.441 14.0842 127.251 14.9651 126.871 15.7495C126.497 16.5277 125.968 17.1284 125.283 17.5518C124.599 17.9751 123.817 18.1868 122.94 18.1868C121.601 18.1868 120.512 17.7167 119.671 16.7767C118.837 15.8304 118.42 14.5791 118.42 13.0228V12.7987ZM119.541 13.1068C119.541 14.3146 119.852 15.3075 120.474 16.0857C121.103 16.8576 121.925 17.2436 122.94 17.2436C123.948 17.2436 124.764 16.8576 125.386 16.0857C126.015 15.3075 126.329 14.2834 126.329 13.0134V12.7987C126.329 12.0267 126.186 11.3201 125.9 10.6789C125.613 10.0377 125.212 9.54277 124.695 9.19415C124.178 8.8393 123.587 8.66188 122.921 8.66188C121.925 8.66188 121.112 9.05408 120.484 9.83848C119.855 10.6167 119.541 11.6376 119.541 12.9014V13.1068ZM130.821 7.89615L130.858 9.6237C131.238 9.00116 131.711 8.52803 132.278 8.20431C132.844 7.87436 133.47 7.70939 134.155 7.70939C135.238 7.70939 136.044 8.01443 136.573 8.62452C137.102 9.23462 137.37 10.1498 137.376 11.3699V18H136.265V11.3606C136.259 10.4579 136.066 9.78556 135.686 9.34356C135.313 8.90156 134.712 8.68055 133.884 8.68055C133.193 8.68055 132.58 8.89844 132.044 9.33422C131.515 9.76378 131.123 10.3459 130.868 11.0805V18H129.756V7.89615H130.821ZM139.823 12.8547C139.823 11.2859 140.172 10.0377 140.869 9.11011C141.572 8.17629 142.525 7.70939 143.726 7.70939C145.09 7.70939 146.129 8.24789 146.845 9.32488V3.65664H147.956V18H146.911L146.864 16.6553C146.148 17.6763 145.096 18.1868 143.708 18.1868C142.543 18.1868 141.603 17.7199 140.887 16.786C140.178 15.846 139.823 14.5791 139.823 12.9854V12.8547ZM140.953 13.0508C140.953 14.3395 141.211 15.3573 141.728 16.1044C142.245 16.8452 142.973 17.2156 143.913 17.2156C145.289 17.2156 146.266 16.6086 146.845 15.3947V10.6509C146.266 9.33733 145.295 8.68055 143.932 8.68055C142.992 8.68055 142.26 9.05097 141.737 9.79179C141.214 10.5264 140.953 11.6127 140.953 13.0508Z" fill="black"/>
<path d="M22.642 56.804C21.6882 57.9461 20.3401 58.8351 18.5975 59.4709C16.8549 60.0949 14.9239 60.4069 12.8045 60.4069C10.5792 60.4069 8.62467 59.9242 6.94094 58.9587C5.26899 57.9814 3.97382 56.5685 3.05543 54.72C2.14881 52.8714 1.68372 50.699 1.66017 48.2029V46.4544C1.66017 43.8876 2.08994 41.6682 2.94946 39.796C3.82076 37.9122 5.06883 36.4757 6.69368 35.4867C8.33031 34.4858 10.2436 33.9854 12.4337 33.9854C15.4832 33.9854 17.8675 34.7154 19.5865 36.1755C21.3056 37.6237 22.3241 39.7372 22.642 42.5159H17.4848C17.2493 41.0441 16.7254 39.9668 15.913 39.2839C15.1123 38.601 14.0055 38.2595 12.5926 38.2595C10.7911 38.2595 9.41943 38.9365 8.47749 40.2906C7.53555 41.6446 7.05869 43.658 7.04691 46.3308V47.9733C7.04691 50.6696 7.55909 52.7066 8.58346 54.0841C9.60782 55.4617 11.109 56.1505 13.0871 56.1505C15.077 56.1505 16.4958 55.7267 17.3435 54.8789V50.4459H12.522V46.5427H22.642V56.804ZM37.3539 45.7303C36.6593 45.6361 36.047 45.589 35.5171 45.589C33.5862 45.589 32.3204 46.2425 31.7199 47.5494V60.0537H26.6158V40.944H31.4374L31.5786 43.2224C32.603 41.468 34.0218 40.5908 35.8351 40.5908C36.4002 40.5908 36.9301 40.6673 37.4246 40.8204L37.3539 45.7303ZM48.2687 60.4069C45.4664 60.4069 43.1822 59.5474 41.4161 57.8284C39.6617 56.1093 38.7845 53.8192 38.7845 50.9581V50.4636C38.7845 48.5443 39.1554 46.8312 39.8972 45.3241C40.639 43.8052 41.6869 42.6395 43.0409 41.8271C44.4067 41.0029 45.9609 40.5908 47.7035 40.5908C50.3174 40.5908 52.372 41.415 53.8674 43.0634C55.3745 44.7118 56.128 47.049 56.128 50.075V52.159H43.9593C44.1242 53.4071 44.6187 54.4079 45.4429 55.1615C46.2788 55.915 47.3326 56.2918 48.6043 56.2918C50.5706 56.2918 52.1071 55.5795 53.2139 54.1548L55.7218 56.963C54.9565 58.0462 53.9204 58.8939 52.6134 59.5062C51.3065 60.1067 49.8582 60.4069 48.2687 60.4069ZM47.6859 44.7236C46.6733 44.7236 45.8491 45.065 45.2133 45.7479C44.5892 46.4309 44.1889 47.4081 44.0123 48.6797H51.1122V48.2735C51.0886 47.1432 50.7825 46.2719 50.1938 45.6596C49.6051 45.0356 48.7691 44.7236 47.6859 44.7236ZM67.8376 60.4069C65.0353 60.4069 62.7511 59.5474 60.9849 57.8284C59.2306 56.1093 58.3534 53.8192 58.3534 50.9581V50.4636C58.3534 48.5443 58.7243 46.8312 59.4661 45.3241C60.2078 43.8052 61.2557 42.6395 62.6098 41.8271C63.9756 41.0029 65.5298 40.5908 67.2724 40.5908C69.8863 40.5908 71.9409 41.415 73.4362 43.0634C74.9434 44.7118 75.6969 47.049 75.6969 50.075V52.159H63.5282C63.693 53.4071 64.1875 54.4079 65.0117 55.1615C65.8477 55.915 66.9015 56.2918 68.1731 56.2918C70.1394 56.2918 71.676 55.5795 72.7828 54.1548L75.2907 56.963C74.5254 58.0462 73.4892 58.8939 72.1823 59.5062C70.8753 60.1067 69.4271 60.4069 67.8376 60.4069ZM67.2547 44.7236C66.2422 44.7236 65.418 45.065 64.7821 45.7479C64.1581 46.4309 63.7578 47.4081 63.5812 48.6797H70.6811V48.2735C70.6575 47.1432 70.3514 46.2719 69.7627 45.6596C69.174 45.0356 68.338 44.7236 67.2547 44.7236ZM83.309 40.944L83.4679 43.1517C84.8338 41.4444 86.6647 40.5908 88.9606 40.5908C90.9858 40.5908 92.4929 41.1854 93.482 42.3746C94.471 43.5638 94.9773 45.3417 95.0009 47.7084V60.0537H89.8967V47.832C89.8967 46.7488 89.6612 45.9658 89.1902 45.483C88.7193 44.9885 87.9363 44.7412 86.8413 44.7412C85.4048 44.7412 84.3275 45.3535 83.6092 46.578V60.0537H78.5051V40.944H83.309ZM99.2219 60.0537V34.3387H107.134C109.395 34.3387 111.414 34.8508 113.192 35.8752C114.982 36.8878 116.377 38.336 117.378 40.2199C118.379 42.092 118.879 44.2232 118.879 46.6134V47.7967C118.879 50.1869 118.385 52.3121 117.396 54.1725C116.418 56.0328 115.035 57.4751 113.245 58.4995C111.455 59.5239 109.436 60.0419 107.187 60.0537H99.2219ZM104.52 38.6304V55.7973H107.081C109.154 55.7973 110.737 55.1203 111.832 53.7662C112.927 52.4122 113.486 50.4753 113.51 47.9556V46.5957C113.51 43.9818 112.968 42.0037 111.885 40.6615C110.802 39.3074 109.218 38.6304 107.134 38.6304H104.52ZM127.798 60.0537H122.676V40.944H127.798V60.0537ZM122.376 35.9988C122.376 35.2335 122.629 34.6036 123.136 34.1091C123.654 33.6145 124.354 33.3673 125.237 33.3673C126.109 33.3673 126.803 33.6145 127.321 34.1091C127.839 34.6036 128.098 35.2335 128.098 35.9988C128.098 36.7759 127.833 37.4118 127.304 37.9063C126.786 38.4008 126.097 38.6481 125.237 38.6481C124.378 38.6481 123.683 38.4008 123.153 37.9063C122.635 37.4118 122.376 36.7759 122.376 35.9988ZM132.284 57.5458C132.284 56.7334 132.555 56.074 133.097 55.5677C133.65 55.0614 134.339 54.8083 135.163 54.8083C135.999 54.8083 136.688 55.0614 137.229 55.5677C137.783 56.074 138.059 56.7334 138.059 57.5458C138.059 58.3464 137.789 58.9999 137.247 59.5062C136.705 60.0007 136.011 60.248 135.163 60.248C134.327 60.248 133.638 60.0007 133.097 59.5062C132.555 58.9999 132.284 58.3464 132.284 57.5458ZM150.493 56.2918C151.435 56.2918 152.2 56.0328 152.789 55.5147C153.378 54.9967 153.684 54.3079 153.707 53.4483H158.494C158.482 54.7435 158.129 55.9327 157.434 57.0159C156.739 58.0874 155.786 58.9234 154.573 59.5239C153.372 60.1126 152.041 60.4069 150.581 60.4069C147.85 60.4069 145.695 59.5415 144.117 57.8107C142.54 56.0681 141.751 53.6662 141.751 50.6048V50.2693C141.751 47.3257 142.534 44.9767 144.1 43.2224C145.666 41.468 147.814 40.5908 150.546 40.5908C152.936 40.5908 154.85 41.2737 156.286 42.6395C157.734 43.9936 158.47 45.8009 158.494 48.0616H153.707C153.684 47.0726 153.378 46.2719 152.789 45.6596C152.2 45.0356 151.423 44.7236 150.458 44.7236C149.269 44.7236 148.368 45.1592 147.756 46.0305C147.155 46.8901 146.855 48.2912 146.855 50.234V50.7638C146.855 52.7301 147.155 54.143 147.756 55.0025C148.356 55.8621 149.269 56.2918 150.493 56.2918ZM160.613 50.3223C160.613 48.4266 160.978 46.737 161.708 45.2534C162.438 43.7699 163.486 42.6219 164.852 41.8094C166.229 40.997 167.825 40.5908 169.638 40.5908C172.217 40.5908 174.318 41.3797 175.943 42.9574C177.58 44.5352 178.492 46.6781 178.681 49.3862L178.716 50.6932C178.716 53.6249 177.898 55.9798 176.261 57.7577C174.624 59.5239 172.429 60.4069 169.673 60.4069C166.918 60.4069 164.716 59.5239 163.068 57.7577C161.431 55.9916 160.613 53.5896 160.613 50.5519V50.3223ZM165.717 50.6932C165.717 52.5064 166.059 53.8958 166.742 54.8612C167.425 55.815 168.402 56.2918 169.673 56.2918C170.91 56.2918 171.875 55.8209 172.57 54.8789C173.265 53.9252 173.612 52.4063 173.612 50.3223C173.612 48.5443 173.265 47.1668 172.57 46.1895C171.875 45.2122 170.898 44.7236 169.638 44.7236C168.39 44.7236 167.425 45.2122 166.742 46.1895C166.059 47.155 165.717 48.6562 165.717 50.6932ZM186.646 40.944L186.805 43.0811C188.159 41.4209 189.99 40.5908 192.298 40.5908C194.759 40.5908 196.448 41.5622 197.367 43.5049C198.709 41.5622 200.622 40.5908 203.107 40.5908C205.179 40.5908 206.721 41.1972 207.734 42.4099C208.746 43.6109 209.253 45.4242 209.253 47.8497V60.0537H204.131V47.8673C204.131 46.7841 203.919 45.9952 203.495 45.5007C203.071 44.9944 202.324 44.7412 201.252 44.7412C199.721 44.7412 198.662 45.4713 198.073 46.9313L198.091 60.0537H192.987V47.885C192.987 46.7782 192.769 45.9775 192.333 45.483C191.897 44.9885 191.156 44.7412 190.108 44.7412C188.659 44.7412 187.612 45.3417 186.964 46.5427V60.0537H181.86V40.944H186.646Z" fill="black"/>
</svg>
