<svg width="41" height="43" viewBox="0 0 41 43" fill="none" xmlns="http://www.w3.org/2000/svg">
<path d="M9.00181 17.7234H9.46362C9.46362 17.5033 9.30822 17.3137 9.09235 17.2706L9.00181 17.7234ZM9.22297 14.6281L8.96685 15.0124C9.10856 15.1068 9.29076 15.1156 9.4409 15.0353C9.59105 14.9549 9.68478 14.7984 9.68478 14.6281H9.22297ZM9.22297 12.7119L8.76192 12.6853C8.76141 12.6942 8.76115 12.7031 8.76115 12.7119H9.22297ZM23.3034 17.7234L23.2129 17.2706C22.997 17.3137 22.8416 17.5033 22.8416 17.7234H23.3034ZM23.0823 14.6281H22.6204C22.6204 14.7984 22.7142 14.9549 22.8643 15.0353C23.0145 15.1156 23.1967 15.1068 23.3384 15.0124L23.0823 14.6281ZM7.60113 9.76402H8.06295C8.06295 9.72816 8.05877 9.69244 8.05051 9.65755L7.60113 9.76402ZM5.38954 7.25827L5.028 6.97094C4.90789 7.12207 4.89446 7.33197 4.99433 7.49718C5.09419 7.66239 5.28629 7.74805 5.47593 7.71194L5.38954 7.25827ZM20.3546 3.49966L20.0141 3.81161C20.0875 3.89175 20.1868 3.94343 20.2946 3.95756L20.3546 3.49966ZM20.354 6.96426L20.7185 7.24784L20.719 7.24723L20.354 6.96426ZM20.3546 6.96348L20.5906 6.5665C20.3902 6.4474 20.1325 6.49629 19.9897 6.68051L20.3546 6.96348ZM12.4124 23.3163C12.4124 23.0612 12.2056 22.8545 11.9506 22.8545C11.6955 22.8545 11.4888 23.0612 11.4888 23.3163H12.4124ZM7.15881 28.5571L6.99308 28.126L7.15881 28.5571ZM1.33496 33.1264L0.989217 32.8202C0.914434 32.9047 0.873148 33.0136 0.873148 33.1264H1.33496ZM1.33496 36.8113H0.873148C0.873148 37.0663 1.07991 37.2731 1.33496 37.2731V36.8113ZM11.7294 31.4313L11.2916 31.5783C11.3379 31.7161 11.4463 31.824 11.5843 31.8697C11.7223 31.9154 11.8738 31.8934 11.9931 31.8104L11.7294 31.4313ZM10.2699 27.0831L10.045 26.6798L10.2699 27.0831ZM20.8164 23.3163C20.8164 23.0612 20.6097 22.8545 20.3546 22.8545C20.0996 22.8545 19.8928 23.0612 19.8928 23.3163H20.8164ZM20.3546 26.0513L20.6733 26.3856C20.7647 26.2985 20.8164 26.1776 20.8164 26.0513H20.3546ZM13.3708 15.3651C13.3708 15.11 13.164 14.9033 12.9089 14.9033C12.6539 14.9033 12.4471 15.11 12.4471 15.3651H13.3708ZM12.4471 16.0284C12.4471 16.2834 12.6539 16.4902 12.9089 16.4902C13.164 16.4902 13.3708 16.2834 13.3708 16.0284H12.4471ZM19.8581 15.3651C19.8581 15.11 19.6513 14.9033 19.3963 14.9033C19.1412 14.9033 18.9345 15.11 18.9345 15.3651H19.8581ZM18.9345 16.0284C18.9345 16.2834 19.1412 16.4902 19.3963 16.4902C19.6513 16.4902 19.8581 16.2834 19.8581 16.0284H18.9345ZM28.9798 22.4942C28.7248 22.4942 28.518 22.701 28.518 22.956C28.518 23.2111 28.7248 23.4178 28.9798 23.4178V22.4942ZM28.9798 41.8031C28.7248 41.8031 28.518 42.0099 28.518 42.2649C28.518 42.52 28.7248 42.7268 28.9798 42.7268V41.8031ZM26.1733 39.0733L26.4266 38.6871L26.1733 39.0733ZM27.0354 39.5634L27.2377 39.1483L27.0354 39.5634ZM34.7043 39.0934L34.9558 39.4807L34.7043 39.0934ZM38.2591 32.1502L38.7204 32.1277L38.2591 32.1502ZM34.8946 26.1077L35.1573 25.7278L34.8946 26.1077ZM27.1674 25.4428L27.3615 25.8619L27.1674 25.4428ZM25.9804 26.1272L26.2457 26.5053L25.9804 26.1272ZM33.9023 25.5245L33.6983 25.9388L33.9023 25.5245ZM34.0339 39.4827L33.8221 39.0724L34.0339 39.4827ZM22.6697 33.2228L23.1297 33.1828L22.6697 33.2228ZM16.1526 24.1156C12.4324 24.1156 9.46362 21.3912 9.46362 17.7234H8.53999C8.53999 21.9519 11.9743 25.0392 16.1526 25.0392V24.1156ZM9.09235 17.2706C8.58905 17.1699 7.62063 16.6598 7.62063 15.4388H6.697C6.697 17.2836 8.1859 18.0312 8.91126 18.1763L9.09235 17.2706ZM9.68478 14.6281V12.7119H8.76115V14.6281H9.68478ZM16.1526 25.0392C20.3309 25.0392 23.7652 21.9519 23.7652 17.7234H22.8416C22.8416 21.3912 19.8729 24.1156 16.1526 24.1156V25.0392ZM23.394 18.1763C24.1193 18.0312 25.6082 17.2836 25.6082 15.4388H24.6846C24.6846 16.6598 23.7162 17.1699 23.2129 17.2706L23.394 18.1763ZM23.5441 14.6281V10.7958H22.6204V14.6281H23.5441ZM7.62063 15.4388C7.62063 14.8672 7.78117 14.7379 7.83375 14.7072L7.36852 13.9093C6.90199 14.1813 6.697 14.7239 6.697 15.4388H7.62063ZM7.83375 14.7072C7.91943 14.6572 8.09065 14.642 8.3597 14.7241C8.61019 14.8006 8.8464 14.9321 8.96685 15.0124L9.47908 14.2438C9.30569 14.1283 8.98781 13.9501 8.62925 13.8407C8.28925 13.737 7.79648 13.6598 7.36852 13.9093L7.83375 14.7072ZM8.06295 14.3083V9.76402H7.13932V14.3083H8.06295ZM8.05051 9.65755C7.93158 9.15555 7.67019 8.41189 7.25748 7.81114C6.8558 7.22644 6.20131 6.63358 5.30316 6.80461L5.47593 7.71194C5.81626 7.64713 6.15699 7.84039 6.49619 8.33414C6.82437 8.81184 7.04953 9.43897 7.15176 9.87048L8.05051 9.65755ZM5.75108 7.54561C7.14916 5.78647 9.5512 3.50784 12.2009 2.35717C13.5206 1.78405 14.8773 1.50127 16.1913 1.67734C17.496 1.85218 18.7983 2.48435 20.0141 3.81161L20.6952 3.18772C19.3456 1.71444 17.8508 0.967841 16.3139 0.761901C14.7863 0.557201 13.2568 0.891645 11.833 1.50998C8.99548 2.74222 6.48042 5.14343 5.028 6.97094L5.75108 7.54561ZM20.2946 3.95756C20.9958 4.0495 22.051 4.33844 22.9167 4.8912C23.7766 5.44025 24.3897 6.20482 24.3897 7.25827H25.3133C25.3133 5.7765 24.4275 4.76004 23.4137 4.11272C22.4057 3.46911 21.2124 3.14636 20.4147 3.04177L20.2946 3.95756ZM25.6082 15.4388C25.6082 14.8687 25.4807 14.4096 25.1831 14.1026L24.5199 14.7454C24.5797 14.8071 24.6846 14.9831 24.6846 15.4388H25.6082ZM25.1831 14.1026C24.7607 13.6667 24.1795 13.7092 23.7907 13.8085C23.3835 13.9126 23.0151 14.1179 22.8261 14.2438L23.3384 15.0124C23.4733 14.9225 23.7452 14.7735 24.0194 14.7034C24.3121 14.6286 24.4536 14.677 24.5199 14.7454L25.1831 14.1026ZM24.3897 7.25827V14.424H25.3133V7.25827H24.3897ZM9.68401 12.7386C9.71456 12.2091 9.98566 11.3628 10.7279 10.6498C11.4599 9.94669 12.6842 9.34145 14.6782 9.34145V8.41782C12.4849 8.41782 11.0185 9.09001 10.0881 9.9837C9.16798 10.8675 8.80509 11.9373 8.76192 12.6853L9.68401 12.7386ZM14.6782 9.34145C16.8132 9.34145 18.1773 9.02274 19.0908 8.58769C20.0193 8.14541 20.4455 7.5988 20.7185 7.24783L19.9895 6.68068C19.7464 6.9932 19.4274 7.40428 18.6936 7.75382C17.9445 8.11058 16.7288 8.41782 14.6782 8.41782V9.34145ZM20.719 7.24723L20.7196 7.24645L19.9897 6.68051L19.9891 6.68128L20.719 7.24723ZM20.1187 7.36045C20.5356 7.60832 21.1765 8.09251 21.7073 8.71788C22.2427 9.34857 22.6204 10.0679 22.6204 10.7958H23.5441C23.5441 9.75489 23.0126 8.82833 22.4115 8.12016C21.8058 7.40668 21.0828 6.8591 20.5906 6.5665L20.1187 7.36045ZM11.4888 23.3163V26.0513H12.4124V23.3163H11.4888ZM6.99308 28.126C5.96439 28.5216 4.79418 29.3273 3.7326 30.1993C2.66363 31.0773 1.66919 32.0523 0.989217 32.8202L1.68071 33.4325C2.32768 32.7019 3.28682 31.7607 4.31885 30.913C5.35828 30.0592 6.43652 29.3296 7.32455 28.9881L6.99308 28.126ZM0.873148 33.1264V36.8113H1.79677V33.1264H0.873148ZM11.632 26.3856L14.8019 29.4072L15.4392 28.7387L12.2692 25.7171L11.632 26.3856ZM14.8569 28.6938L11.4658 31.0522L11.9931 31.8104L15.3842 29.4521L14.8569 28.6938ZM11.6872 25.672C11.3127 25.932 10.7396 26.2923 10.045 26.6798L10.4949 27.4864C11.2107 27.0871 11.8102 26.711 12.214 26.4307L11.6872 25.672ZM10.045 26.6798C9.16071 27.173 8.08998 27.7043 6.99308 28.126L7.32455 28.9881C8.47222 28.5468 9.5832 27.9949 10.4949 27.4864L10.045 26.6798ZM12.1672 31.2843L10.7078 26.9362L9.83214 27.2301L11.2916 31.5783L12.1672 31.2843ZM19.8928 23.3163V26.0513H20.8164V23.3163H19.8928ZM20.036 25.7171L16.8661 28.7387L17.5033 29.4072L20.6733 26.3856L20.036 25.7171ZM16.921 29.4521L18.6166 30.6313L19.1439 29.873L17.4484 28.6938L16.921 29.4521ZM15.1205 29.5348H16.1526V28.6111H15.1205V29.5348ZM16.1526 29.5348H17.1847V28.6111H16.1526V29.5348ZM1.33496 37.2731H16.1526V36.3495H1.33496V37.2731ZM16.1526 37.2731H19.3963V36.3495H16.1526V37.2731ZM15.6908 29.073V36.8113H16.6144V29.073H15.6908ZM12.4471 15.3651V16.0284H13.3708V15.3651H12.4471ZM18.9345 15.3651V16.0284H19.8581V15.3651H18.9345ZM34.1207 32.5368C34.1207 34.5609 32.4793 36.2021 30.4542 36.2021V37.1257C32.9892 37.1257 35.0443 35.0713 35.0443 32.5368H34.1207ZM30.4542 36.2021C28.4292 36.2021 26.7877 34.5609 26.7877 32.5368H25.8641C25.8641 35.0713 27.9193 37.1257 30.4542 37.1257V36.2021ZM26.7877 32.5368C26.7877 30.5126 28.4292 28.8715 30.4542 28.8715V27.9479C27.9193 27.9479 25.8641 30.0023 25.8641 32.5368H26.7877ZM30.4542 28.8715C32.4793 28.8715 34.1207 30.5126 34.1207 32.5368H35.0443C35.0443 30.0023 32.9892 27.9479 30.4542 27.9479V28.8715ZM28.9798 23.4178H32.0761V22.4942H28.9798V23.4178ZM32.0761 41.8031H28.9798V42.7268H32.0761V41.8031ZM37.7174 26.6739L39.2655 29.3545L40.0654 28.8926L38.5173 26.212L37.7174 26.6739ZM23.3385 38.5471L21.7904 35.8664L20.9905 36.3284L22.5386 39.009L23.3385 38.5471ZM22.5386 26.212L20.9905 28.8926L21.7904 29.3545L23.3385 26.6739L22.5386 26.212ZM38.5173 39.009L40.0654 36.3284L39.2655 35.8664L37.7174 38.5471L38.5173 39.009ZM23.1297 33.1828C23.1112 32.97 23.1018 32.7545 23.1018 32.5368H22.1781C22.1781 32.7813 22.1888 33.0235 22.2096 33.2628L23.1297 33.1828ZM23.1018 32.5368C23.1018 32.3451 23.1091 32.1552 23.1235 31.9673L22.2025 31.8968C22.1864 32.1081 22.1781 32.3215 22.1781 32.5368H23.1018ZM33.6983 25.9388C34.0238 26.099 34.3357 26.2826 34.6319 26.4875L35.1573 25.7278C34.8239 25.4973 34.4728 25.2906 34.1063 25.1101L33.6983 25.9388ZM37.7978 32.1727C37.8037 32.2933 37.8067 32.4147 37.8067 32.5368H38.7303C38.7303 32.3996 38.727 32.2633 38.7204 32.1277L37.7978 32.1727ZM37.8067 32.5368C37.8067 32.6853 37.8023 32.8328 37.7936 32.979L38.7156 33.0337C38.7254 32.8693 38.7303 32.7036 38.7303 32.5368H37.8067ZM34.4529 38.706C34.2493 38.8382 34.0388 38.9605 33.8221 39.0724L34.2457 39.8931C34.4898 39.7672 34.7267 39.6295 34.9558 39.4807L34.4529 38.706ZM27.2377 39.1483C26.9569 39.0115 26.6861 38.8573 26.4266 38.6871L25.9201 39.4595C26.2121 39.651 26.517 39.8246 26.8332 39.9786L27.2377 39.1483ZM26.2457 26.5053C26.5965 26.2591 26.9694 26.0435 27.3615 25.8619L26.9733 25.0238C26.5308 25.2288 26.1103 25.4719 25.7152 25.7492L26.2457 26.5053ZM26.4266 38.6871C25.3671 37.9922 23.9175 37.6798 22.7077 38.3781L23.1694 39.178C23.9729 38.7142 25.0358 38.8795 25.9201 39.4595L26.4266 38.6871ZM29.4416 42.2649C29.4416 40.8331 28.403 39.716 27.2377 39.1483L26.8332 39.9786C27.8119 40.4554 28.518 41.3118 28.518 42.2649H29.4416ZM38.3482 38.3781C37.0822 37.6473 35.5642 37.9846 34.4529 38.706L34.9558 39.4807C35.8995 38.8681 37.0305 38.6839 37.8865 39.178L38.3482 38.3781ZM39.8963 35.6974C39.0499 35.2089 38.6497 34.1458 38.7156 33.0337L37.7936 32.979C37.7157 34.2932 38.176 35.7709 39.4346 36.4974L39.8963 35.6974ZM38.7204 32.1277C38.6673 31.038 39.0668 30.0023 39.8963 29.5235L39.4346 28.7236C38.1986 29.437 37.7349 30.8804 37.7978 32.1727L38.7204 32.1277ZM34.6319 26.4875C35.6774 27.2105 37.1336 27.5439 38.3482 26.8429L37.8865 26.043C37.0866 26.5046 36.0248 26.3278 35.1573 25.7278L34.6319 26.4875ZM28.518 22.956C28.518 23.8225 27.8759 24.6057 26.9733 25.0238L27.3615 25.8619C28.4662 25.3502 29.4416 24.3018 29.4416 22.956H28.518ZM22.7077 26.8429C23.8657 27.5113 25.2526 27.202 26.2457 26.5053L25.7152 25.7492C24.9079 26.3156 23.9161 26.4739 23.1694 26.043L22.7077 26.8429ZM21.1596 29.5235C21.9134 29.9586 22.2786 30.9041 22.2025 31.8968L23.1235 31.9673C23.2164 30.7537 22.7839 29.3946 21.6213 28.7236L21.1596 29.5235ZM31.6142 22.956C31.6142 24.3205 32.5889 25.3925 33.6983 25.9388L34.1063 25.1101C33.1897 24.6588 32.5379 23.8498 32.5379 22.956H31.6142ZM33.8221 39.0724C32.6543 39.6751 31.6142 40.814 31.6142 42.2649H32.5379C32.5379 41.2857 33.254 40.4049 34.2457 39.8931L33.8221 39.0724ZM21.6213 36.4974C22.8074 35.8127 23.2373 34.4189 23.1297 33.1828L22.2096 33.2628C22.298 34.2786 21.9312 35.2521 21.1596 35.6974L21.6213 36.4974Z" fill="white"/>
</svg>
