<svg width="71" height="71" viewBox="0 0 71 71" fill="none" xmlns="http://www.w3.org/2000/svg">
<path d="M8.79032 16.5806H12.871C14.9198 16.5806 16.5806 14.9198 16.5806 12.871V8.79032M8.79032 16.5806H4.70968C2.66088 16.5806 1 14.9198 1 12.871V4.70968C1 2.66088 2.66088 1 4.70968 1H12.871C14.9198 1 16.5806 2.66088 16.5806 4.70968V8.79032M8.79032 16.5806V27.7097M8.79032 27.7097H4.70968C2.66088 27.7097 1 29.3706 1 31.4194V39.5806C1 41.6294 2.66088 43.2903 4.70968 43.2903H8.79032M8.79032 27.7097H12.871C14.9198 27.7097 16.5806 29.3706 16.5806 31.4194V35.5M8.79032 43.2903H12.871C14.9198 43.2903 16.5806 41.6294 16.5806 39.5806V35.5M8.79032 43.2903V54.4194M8.79032 54.4194H4.70968C2.66088 54.4194 1 56.0802 1 58.129V66.2903C1 68.3391 2.66088 70 4.70968 70H12.871C14.9198 70 16.5806 68.3391 16.5806 66.2903V62.2097M8.79032 54.4194H12.871C14.9198 54.4194 16.5806 56.0802 16.5806 58.129V62.2097M16.5806 8.79032H27.7097M27.7097 8.79032V12.871C27.7097 14.9198 29.3706 16.5806 31.4194 16.5806H35.5M27.7097 8.79032V4.70968C27.7097 2.66088 29.3706 1 31.4194 1H39.5806C41.6294 1 43.2903 2.66088 43.2903 4.70968V8.79032M43.2903 8.79032V12.871C43.2903 14.9198 41.6294 16.5806 39.5806 16.5806H35.5M43.2903 8.79032H54.4194M54.4194 8.79032V12.871C54.4194 14.9198 56.0802 16.5806 58.129 16.5806H62.2097M54.4194 8.79032V4.70968C54.4194 2.66088 56.0802 1 58.129 1H66.2903C68.3391 1 70 2.66088 70 4.70968V12.871C70 14.9198 68.3391 16.5806 66.2903 16.5806H62.2097M62.2097 16.5806V27.7097M62.2097 27.7097H58.129C56.0802 27.7097 54.4194 29.3706 54.4194 31.4194V35.5M62.2097 27.7097H66.2903C68.3391 27.7097 70 29.3706 70 31.4194V39.5806C70 41.6294 68.3391 43.2903 66.2903 43.2903H62.2097M62.2097 43.2903H58.129C56.0802 43.2903 54.4194 41.6294 54.4194 39.5806V35.5M62.2097 43.2903V54.4194M62.2097 54.4194H58.129C56.0802 54.4194 54.4194 56.0802 54.4194 58.129V62.2097M62.2097 54.4194H66.2903C68.3391 54.4194 70 56.0802 70 58.129V66.2903C70 68.3391 68.3391 70 66.2903 70H58.129C56.0802 70 54.4194 68.3391 54.4194 66.2903V62.2097M54.4194 62.2097H43.2903M43.2903 62.2097V58.129C43.2903 56.0802 41.6294 54.4194 39.5806 54.4194H35.5M43.2903 62.2097V66.2903C43.2903 68.3391 41.6294 70 39.5806 70H31.4194C29.3706 70 27.7097 68.3391 27.7097 66.2903V62.2097M27.7097 62.2097V58.129C27.7097 56.0802 29.3706 54.4194 31.4194 54.4194H35.5M27.7097 62.2097H16.5806M35.5 54.4194V43.2903M35.5 43.2903H39.5806C41.6294 43.2903 43.2903 41.6294 43.2903 39.5806V35.5M35.5 43.2903H31.4194C29.3706 43.2903 27.7097 41.6294 27.7097 39.5806V35.5M43.2903 35.5V31.4194C43.2903 29.3706 41.6294 27.7097 39.5806 27.7097H35.5M43.2903 35.5H54.4194M35.5 27.7097H31.4194C29.3706 27.7097 27.7097 29.3706 27.7097 31.4194V35.5M35.5 27.7097V16.5806M27.7097 35.5H16.5806" stroke="white" stroke-width="2" stroke-linejoin="round"/>
</svg>
