<svg width="47" height="79" viewBox="0 0 47 79" fill="none" xmlns="http://www.w3.org/2000/svg">
<path d="M16.0391 71.4202C15.5198 71.4202 15.0989 71.8411 15.0989 72.3604C15.0989 72.8796 15.5198 73.3005 16.0391 73.3005V71.4202ZM30.627 73.3005C31.1462 73.3005 31.5671 72.8796 31.5671 72.3604C31.5671 71.8411 31.1462 71.4202 30.627 71.4202V73.3005ZM1.94018 10.1738V2.80469H0.0598214V10.1738H1.94018ZM46.7566 10.1738V2.80469H44.8762V10.1738H46.7566ZM1 11.114H45.8164V9.23365H1V11.114ZM1.94018 76.1953V66.7207H0.0598214V76.1953H1.94018ZM1.94018 66.7207V10.1738H0.0598214V66.7207H1.94018ZM46.7566 76.1953V66.7207H44.8762V76.1953H46.7566ZM46.7566 66.7207V10.1738H44.8762V66.7207H46.7566ZM1 67.6609H45.8164V65.7805H1V67.6609ZM16.0391 73.3005H30.627V71.4202H16.0391V73.3005ZM44.0117 1.94018C44.4892 1.94018 44.8762 2.32723 44.8762 2.80469H46.7566C46.7566 1.28874 45.5277 0.0598214 44.0117 0.0598214V1.94018ZM2.80469 77.0598C2.32723 77.0598 1.94018 76.6728 1.94018 76.1953H0.0598214C0.0598214 77.7113 1.28874 78.9402 2.80469 78.9402V77.0598ZM44.0117 78.9402C45.5277 78.9402 46.7566 77.7113 46.7566 76.1953H44.8762C44.8762 76.6728 44.4892 77.0598 44.0117 77.0598V78.9402ZM2.80469 0.0598214C1.28874 0.0598214 0.0598214 1.28874 0.0598214 2.80469H1.94018C1.94018 2.32723 2.32723 1.94018 2.80469 1.94018V0.0598214ZM35.4016 28.3711V50.4785H37.282V28.3711H35.4016ZM34.6875 51.1926H11.9785V53.073H34.6875V51.1926ZM11.2644 50.4785V28.3711H9.38404V50.4785H11.2644ZM11.9785 27.657H19.1973V25.7766H11.9785V27.657ZM18.2571 26.7168V33.8604H20.1374V26.7168H18.2571ZM19.1973 27.657H27.5439V25.7766H19.1973V27.657ZM27.5439 27.657H34.6875V25.7766H27.5439V27.657ZM26.6038 26.7168V33.8604H28.4841V26.7168H26.6038ZM25.8896 34.5745H20.8516V36.4548H25.8896V34.5745ZM26.6038 33.8604C26.6038 34.2547 26.284 34.5745 25.8896 34.5745V36.4548C27.3225 36.4548 28.4841 35.2932 28.4841 33.8604H26.6038ZM11.9785 51.1926C11.5841 51.1926 11.2644 50.8729 11.2644 50.4785H9.38404C9.38404 51.9114 10.5456 53.073 11.9785 53.073V51.1926ZM35.4016 50.4785C35.4016 50.8729 35.0819 51.1926 34.6875 51.1926V53.073C36.1204 53.073 37.282 51.9114 37.282 50.4785H35.4016ZM37.282 28.3711C37.282 26.9382 36.1204 25.7766 34.6875 25.7766V27.657C35.0819 27.657 35.4016 27.9767 35.4016 28.3711H37.282ZM18.2571 33.8604C18.2571 35.2932 19.4187 36.4548 20.8516 36.4548V34.5745C20.4572 34.5745 20.1374 34.2547 20.1374 33.8604H18.2571ZM11.2644 28.3711C11.2644 27.9767 11.5841 27.657 11.9785 27.657V25.7766C10.5456 25.7766 9.38404 26.9382 9.38404 28.3711H11.2644ZM2.80469 1.94018H44.0117V0.0598214H2.80469V1.94018ZM44.0117 77.0598H2.80469V78.9402H44.0117V77.0598Z" fill="white"/>
</svg>
