<svg width="75" height="75" viewBox="0 0 75 75" fill="none" xmlns="http://www.w3.org/2000/svg">
<path d="M14.0436 41.9964V40.9964H14.0424L14.0436 41.9964ZM40.5857 33.18V34.18V33.18ZM34.5906 33.1799V32.1799V33.1799ZM24.8925 10.9928H29.1244V8.99275H24.8925V10.9928ZM29.1244 64.1836H24.8925V66.1836H29.1244V64.1836ZM24.8925 64.1836C23.205 64.1836 21.837 62.8156 21.837 61.128H19.837C19.837 63.9201 22.1004 66.1836 24.8925 66.1836V64.1836ZM32.18 61.128C32.18 62.8156 30.8119 64.1836 29.1244 64.1836V66.1836C31.9165 66.1836 34.18 63.9201 34.18 61.128H32.18ZM29.1244 10.9928C30.8119 10.9928 32.18 12.3608 32.18 14.0483H34.18C34.18 11.2562 31.9165 8.99275 29.1244 8.99275V10.9928ZM24.8925 8.99275C22.1004 8.99275 19.837 11.2562 19.837 14.0483H21.837C21.837 12.3608 23.205 10.9928 24.8925 10.9928V8.99275ZM64.1836 24.8925V29.1244H66.1836V24.8925H64.1836ZM10.9928 29.1244V24.8925H8.99275V29.1244H10.9928ZM10.9928 24.8925C10.9928 23.205 12.3608 21.837 14.0483 21.837V19.837C11.2562 19.837 8.99275 22.1004 8.99275 24.8925H10.9928ZM14.0483 32.1799C12.3608 32.1799 10.9928 30.8119 10.9928 29.1244H8.99275C8.99275 31.9165 11.2562 34.1799 14.0483 34.1799V32.1799ZM64.1836 29.1244C64.1836 30.8119 62.8156 32.18 61.128 32.18V34.18C63.9201 34.18 66.1836 31.9165 66.1836 29.1244H64.1836ZM66.1836 24.8925C66.1836 22.1004 63.9201 19.837 61.128 19.837V21.837C62.8156 21.837 64.1836 23.205 64.1836 24.8925H66.1836ZM46.0519 10.9928H50.2838V8.99275H46.0519V10.9928ZM50.2838 64.1836H46.0519V66.1836H50.2838V64.1836ZM46.0519 64.1836C44.3644 64.1836 42.9964 62.8156 42.9964 61.128H40.9964C40.9964 63.9201 43.2598 66.1836 46.0519 66.1836V64.1836ZM53.3394 61.128C53.3394 62.8156 51.9714 64.1836 50.2838 64.1836V66.1836C53.0759 66.1836 55.3394 63.9201 55.3394 61.128H53.3394ZM50.2838 10.9928C51.9714 10.9928 53.3394 12.3608 53.3394 14.0483H55.3394C55.3394 11.2562 53.0759 8.99275 50.2838 8.99275V10.9928ZM46.0519 8.99275C43.2598 8.99275 40.9964 11.2562 40.9964 14.0483H42.9964C42.9964 12.3608 44.3644 10.9928 46.0519 10.9928V8.99275ZM64.1836 46.0519V50.2838H66.1836V46.0519H64.1836ZM10.9928 50.2838V46.0519H8.99275V50.2838H10.9928ZM14.0483 53.3394C12.3608 53.3394 10.9928 51.9714 10.9928 50.2838H8.99275C8.99275 53.0759 11.2562 55.3394 14.0483 55.3394V53.3394ZM64.1836 50.2838C64.1836 51.9714 62.8156 53.3394 61.128 53.3394V55.3394C63.9201 55.3394 66.1836 53.0759 66.1836 50.2838H64.1836ZM66.1836 46.0519C66.1836 43.2598 63.9201 40.9964 61.128 40.9964V42.9964C62.8156 42.9964 64.1836 44.3644 64.1836 46.0519H66.1836ZM14.0483 21.837H19.4263V19.837H14.0483V21.837ZM21.837 19.4263V14.0483H19.837V19.4263H21.837ZM32.18 14.0483V19.4263H34.18V14.0483H32.18ZM34.5906 21.837H40.5857V19.837H34.5906V21.837ZM42.9964 19.4263V14.0483H40.9964V19.4263H42.9964ZM53.3394 14.0483V19.4263H55.3394V14.0483H53.3394ZM55.75 21.837H61.128V19.837H55.75V21.837ZM14.0483 34.1799H19.4263V32.1799H14.0483V34.1799ZM19.837 34.5906V40.5857H21.837V34.5906H19.837ZM10.9928 46.0519C10.9928 44.3656 12.3589 42.9983 14.0447 42.9964L14.0424 40.9964C11.253 40.9996 8.99275 43.2618 8.99275 46.0519H10.9928ZM19.4263 40.9964H14.0436V42.9964H19.4263V40.9964ZM14.0483 55.3394H19.4263V53.3394H14.0483V55.3394ZM19.837 55.75V61.128H21.837V55.75H19.837ZM34.18 61.128V55.75H32.18V61.128H34.18ZM34.5906 55.3394H40.5857V53.3394H34.5906V55.3394ZM40.9964 55.75V61.128H42.9964V55.75H40.9964ZM55.3394 61.128V55.75H53.3394V61.128H55.3394ZM55.75 55.3394H61.128V53.3394H55.75V55.3394ZM61.128 40.9964H55.75V42.9964H61.128V40.9964ZM55.3394 40.5857V34.5906H53.3394V40.5857H55.3394ZM55.75 34.18H61.128V32.18H55.75V34.18ZM34.5906 42.9964H40.5857V40.9964H34.5906V42.9964ZM42.9964 40.5857V34.5906H40.9964V40.5857H42.9964ZM32.18 34.5906V40.5857H34.18V34.5906H32.18ZM40.5857 32.18L34.5906 32.1799L34.5906 34.1799L40.5857 34.18V32.18ZM42.9964 34.5906C42.9964 33.2592 41.9171 32.18 40.5857 32.18V34.18C40.8125 34.18 40.9964 34.3638 40.9964 34.5906H42.9964ZM40.5857 42.9964C41.9171 42.9964 42.9964 41.9171 42.9964 40.5857H40.9964C40.9964 40.8125 40.8125 40.9964 40.5857 40.9964V42.9964ZM34.5906 40.9964C34.3638 40.9964 34.18 40.8125 34.18 40.5857H32.18C32.18 41.9171 33.2592 42.9964 34.5906 42.9964V40.9964ZM34.18 34.5906C34.18 34.3638 34.3638 34.1799 34.5906 34.1799V32.1799C33.2592 32.1799 32.18 33.2592 32.18 34.5906H34.18ZM55.3394 34.5906C55.3394 34.3638 55.5232 34.18 55.75 34.18V32.18C54.4186 32.18 53.3394 33.2592 53.3394 34.5906H55.3394ZM55.3394 55.75C55.3394 55.5232 55.5232 55.3394 55.75 55.3394V53.3394C54.4186 53.3394 53.3394 54.4186 53.3394 55.75H55.3394ZM40.5857 55.3394C40.8125 55.3394 40.9964 55.5232 40.9964 55.75H42.9964C42.9964 54.4186 41.9171 53.3394 40.5857 53.3394V55.3394ZM34.18 55.75C34.18 55.5232 34.3638 55.3394 34.5906 55.3394V53.3394C33.2592 53.3394 32.18 54.4186 32.18 55.75H34.18ZM19.4263 55.3394C19.6531 55.3394 19.837 55.5232 19.837 55.75H21.837C21.837 54.4186 20.7577 53.3394 19.4263 53.3394V55.3394ZM19.837 40.5857C19.837 40.8125 19.6531 40.9964 19.4263 40.9964V42.9964C20.7577 42.9964 21.837 41.9171 21.837 40.5857H19.837ZM19.4263 34.1799C19.6531 34.1799 19.837 34.3638 19.837 34.5906H21.837C21.837 33.2592 20.7577 32.1799 19.4263 32.1799V34.1799ZM53.3394 19.4263C53.3394 20.7577 54.4186 21.837 55.75 21.837V19.837C55.5232 19.837 55.3394 19.6531 55.3394 19.4263H53.3394ZM40.5857 21.837C41.9171 21.837 42.9964 20.7577 42.9964 19.4263H40.9964C40.9964 19.6531 40.8125 19.837 40.5857 19.837V21.837ZM32.18 19.4263C32.18 20.7577 33.2592 21.837 34.5906 21.837V19.837C34.3638 19.837 34.18 19.6531 34.18 19.4263H32.18ZM55.75 40.9964C55.5232 40.9964 55.3394 40.8125 55.3394 40.5857H53.3394C53.3394 41.9171 54.4186 42.9964 55.75 42.9964V40.9964ZM19.4263 21.837C20.7577 21.837 21.837 20.7577 21.837 19.4263H19.837C19.837 19.6531 19.6531 19.837 19.4263 19.837V21.837ZM2.41063 2H72.5894V0H2.41063V2ZM73 2.41063V72.5894H75V2.41063H73ZM72.5894 73H2.41063V75H72.5894V73ZM2 72.5894V2.41063H0V72.5894H2ZM2.41063 73C2.18384 73 2 72.8162 2 72.5894H0C0 73.9207 1.07927 75 2.41063 75V73ZM73 72.5894C73 72.8162 72.8162 73 72.5894 73V75C73.9207 75 75 73.9207 75 72.5894H73ZM72.5894 2C72.8162 2 73 2.18384 73 2.41063H75C75 1.07927 73.9207 0 72.5894 0V2ZM2.41063 0C1.07928 0 0 1.07927 0 2.41063H2C2 2.18384 2.18384 2 2.41063 2V0Z" fill="white"/>
</svg>
