<svg width="75" height="83" viewBox="0 0 75 83" fill="none" xmlns="http://www.w3.org/2000/svg">
<path d="M3.26106 31.3209L4.17896 30.9241V30.924L3.26106 31.3209ZM4.44478 38.3606L5.44476 38.3545L4.44478 38.3606ZM25.0103 31.3209L24.0924 30.924L24.0924 30.9241L25.0103 31.3209ZM23.8266 38.3606L24.8266 38.3667V38.3667L23.8266 38.3606ZM13.1357 7.06417C13.1357 7.61646 13.5834 8.06417 14.1357 8.06417C14.688 8.06417 15.1357 7.61646 15.1357 7.06417H13.1357ZM6.70649 11.262H2.0767V13.262H6.70649V11.262ZM2 11.1791V2.08289H0V11.1791H2ZM2.0767 11.262C2.03974 11.262 2 11.2303 2 11.1791H0C0 12.3241 0.924371 13.262 2.0767 13.262V11.262ZM2.0767 0C0.92437 0 0 0.937955 0 2.08289H2C2 2.0317 2.03974 2 2.0767 2V0ZM2 24.8235V13.3449H0V24.8235H2ZM2.0767 24.9064C2.03974 24.9064 2 24.8747 2 24.8235H0C0 25.9685 0.924372 26.9064 2.0767 26.9064V24.9064ZM2.0767 11.262C0.924371 11.262 0 12.2 0 13.3449H2C2 13.2937 2.03974 13.262 2.0767 13.262V11.262ZM6.35251 12.9118V17.6765H8.35251V12.9118H6.35251ZM7.78319 19.1096H11.444V17.1096H7.78319V19.1096ZM10.8746 18.5428V31.8623H12.8746V18.5428H10.8746ZM3.26106 24.9064H2.29204V26.9064H3.26106V24.9064ZM2.29204 24.9064H2.0767V26.9064H2.29204V24.9064ZM1.29252 25.8754C1.27204 26.5343 1.34548 27.5445 1.51008 28.589C1.67424 29.6306 1.94174 30.7891 2.34316 31.7177L4.17896 30.924C3.87318 30.2167 3.63823 29.2455 3.4857 28.2777C3.33362 27.3127 3.27614 26.4337 3.29155 25.9375L1.29252 25.8754ZM2.34316 31.7177C3.28749 33.9021 3.4346 36.7045 3.44479 38.3667L5.44476 38.3545C5.4344 36.6666 5.29631 33.5087 4.17896 30.9241L2.34316 31.7177ZM2.0767 2H7.35251V0H2.0767V2ZM6.35251 1V7.06417H8.35251V1H6.35251ZM7.35251 2H10.7441V0H7.35251V2ZM9.7441 1V7.06417H11.7441V1H9.7441ZM3.44479 38.3667C3.44888 39.0326 3.98829 39.5762 4.66077 39.5762V37.5762C5.09538 37.5762 5.44214 37.9278 5.44476 38.3545L3.44479 38.3667ZM11.444 19.1096C11.1241 19.1096 10.8746 18.8504 10.8746 18.5428H12.8746C12.8746 17.7567 12.2395 17.1096 11.444 17.1096V19.1096ZM6.35251 17.6765C6.35251 18.4626 6.98765 19.1096 7.78319 19.1096V17.1096C8.10301 17.1096 8.35251 17.3688 8.35251 17.6765H6.35251ZM10.8746 31.8623C10.8746 32.6484 11.5098 33.2955 12.3053 33.2955V31.2955C12.6251 31.2955 12.8746 31.5547 12.8746 31.8623H10.8746ZM6.70649 13.262C6.50559 13.262 6.35251 13.0998 6.35251 12.9118H8.35251C8.35251 12.0061 7.62096 11.262 6.70649 11.262V13.262ZM21.5649 13.262H26.1947V11.262H21.5649V13.262ZM28.2714 11.1791V2.08289H26.2714V11.1791H28.2714ZM26.1947 13.262C27.347 13.262 28.2714 12.3241 28.2714 11.1791H26.2714C26.2714 11.2303 26.2316 11.262 26.1947 11.262V13.262ZM26.1947 2C26.2316 2 26.2714 2.0317 26.2714 2.08289H28.2714C28.2714 0.937954 27.347 0 26.1947 0V2ZM28.2714 24.8235V13.3449H26.2714V24.8235H28.2714ZM26.1947 26.9064C27.347 26.9064 28.2714 25.9685 28.2714 24.8235H26.2714C26.2714 24.8747 26.2316 24.9064 26.1947 24.9064V26.9064ZM26.1947 13.262C26.2316 13.262 26.2714 13.2937 26.2714 13.3449H28.2714C28.2714 12.2 27.347 11.262 26.1947 11.262V13.262ZM19.9189 12.9118V17.6765H21.9189V12.9118H19.9189ZM20.4882 17.1096H16.8274V19.1096H20.4882V17.1096ZM15.3968 18.5428V31.8623H17.3968V18.5428H15.3968ZM25.0103 26.9064H25.9794V24.9064H25.0103V26.9064ZM25.9794 26.9064H26.1947V24.9064H25.9794V26.9064ZM24.9798 25.9375C24.9952 26.4337 24.9378 27.3127 24.7857 28.2777C24.6332 29.2455 24.3982 30.2167 24.0924 30.924L25.9282 31.7177C26.3296 30.7891 26.5971 29.6306 26.7613 28.589C26.9259 27.5445 26.9993 26.5343 26.9789 25.8754L24.9798 25.9375ZM24.0924 30.9241C22.9751 33.5087 22.837 36.6666 22.8266 38.3545L24.8266 38.3667C24.8368 36.7045 24.9839 33.9021 25.9282 31.7177L24.0924 30.9241ZM26.1947 0H20.9189V2H26.1947V0ZM19.9189 1V7.06417H21.9189V1H19.9189ZM20.9189 0H17.5273V2H20.9189V0ZM16.5273 1V7.06417H18.5273V1H16.5273ZM22.8266 38.3545C22.8292 37.9278 23.176 37.5762 23.6106 37.5762V39.5762C24.2831 39.5762 24.8225 39.0325 24.8266 38.3667L22.8266 38.3545ZM16.8274 17.1096C16.0319 17.1096 15.3968 17.7567 15.3968 18.5428H17.3968C17.3968 18.8504 17.1473 19.1096 16.8274 19.1096V17.1096ZM19.9189 17.6765C19.9189 17.3688 20.1684 17.1096 20.4882 17.1096V19.1096C21.2837 19.1096 21.9189 18.4626 21.9189 17.6765H19.9189ZM15.3968 31.8623C15.3968 31.5547 15.6462 31.2955 15.9661 31.2955V33.2955C16.7616 33.2955 17.3968 32.6484 17.3968 31.8623H15.3968ZM21.5649 11.262C20.6504 11.262 19.9189 12.0061 19.9189 12.9118H21.9189C21.9189 13.0998 21.7658 13.262 21.5649 13.262V11.262ZM12.3053 33.2955H15.9661V31.2955H12.3053V33.2955ZM10.7441 2H14.1357V0H10.7441V2ZM14.1357 2H17.5273V0H14.1357V2ZM13.1357 1V7.06417H15.1357V1H13.1357ZM43.0678 66.9479C43.0678 74.7141 36.8096 81 29.1018 81V83C37.925 83 45.0678 75.8078 45.0678 66.9479H43.0678ZM29.1018 81C21.3939 81 15.1357 74.7141 15.1357 66.9479H13.1357C13.1357 75.8078 20.2786 83 29.1018 83V81ZM45.0678 16.0521C45.0678 8.28594 51.3261 2 59.0339 2V0C50.2107 0 43.0678 7.1922 43.0678 16.0521H45.0678ZM59.0339 2C66.7418 2 73 8.28594 73 16.0521H75C75 7.1922 67.8571 0 59.0339 0V2ZM4.66077 39.5762H14.1357V37.5762H4.66077V39.5762ZM14.1357 39.5762H23.6106V37.5762H14.1357V39.5762ZM13.1357 38.5762V66.9479H15.1357V38.5762H13.1357ZM45.0678 66.9479V16.0521H43.0678V66.9479H45.0678Z" fill="white"/>
</svg>
