<svg width="21" height="20" viewBox="0 0 21 20" fill="none" xmlns="http://www.w3.org/2000/svg">
<path d="M9.09259 8.83019C8.54031 8.83019 8.09259 9.2779 8.09259 9.83019C8.09259 10.3825 8.54031 10.8302 9.09259 10.8302V8.83019ZM20 9.83019L20.6945 10.5497C20.8897 10.3612 21 10.1015 21 9.83019C21 9.55884 20.8897 9.29914 20.6945 9.11069L20 9.83019ZM16.8241 5.37484C16.4268 4.99128 15.7937 5.00248 15.4101 5.39985C15.0266 5.79722 15.0378 6.43028 15.4351 6.81384L16.8241 5.37484ZM15.4351 12.8465C15.0378 13.2301 15.0266 13.8632 15.4101 14.2605C15.7937 14.6579 16.4268 14.6691 16.8241 14.2855L15.4351 12.8465ZM2.75926 2H11.9074V0H2.75926V2ZM11.9074 18H2.75926V20H11.9074V18ZM2 17.3019V2.69811H0V17.3019H2ZM2.75926 18C2.30629 18 2 17.6544 2 17.3019H0C0 18.8251 1.269 20 2.75926 20V18ZM11.9074 20C13.3977 20 14.6667 18.8251 14.6667 17.3019H12.6667C12.6667 17.6544 12.3604 18 11.9074 18V20ZM11.9074 2C12.3604 2 12.6667 2.3456 12.6667 2.69811H14.6667C14.6667 1.17494 13.3977 0 11.9074 0V2ZM2.75926 0C1.269 0 0 1.17494 0 2.69811H2C2 2.3456 2.30629 2 2.75926 2V0ZM9.09259 10.8302H20V8.83019H9.09259V10.8302ZM20.6945 9.11069L16.8241 5.37484L15.4351 6.81384L19.3055 10.5497L20.6945 9.11069ZM19.3055 9.11069L15.4351 12.8465L16.8241 14.2855L20.6945 10.5497L19.3055 9.11069Z" fill="white"/>
</svg>
