<svg width="74" height="70" viewBox="0 0 74 70" fill="none" xmlns="http://www.w3.org/2000/svg">
<path d="M1.08505 0.0289428C0.548755 0.0289428 0.113997 0.4637 0.113997 1C0.113997 1.5363 0.548755 1.97106 1.08505 1.97106V0.0289428ZM5.0819 1H6.05296C6.05296 0.4637 5.6182 0.0289428 5.0819 0.0289428V1ZM4.11085 18.6882C4.11085 19.2245 4.5456 19.6592 5.0819 19.6592C5.6182 19.6592 6.05296 19.2245 6.05296 18.6882H4.11085ZM15.6268 1V0.0289428C15.0905 0.0289428 14.6557 0.4637 14.6557 1L15.6268 1ZM15.6268 18.6882H14.6557C14.6557 19.2245 15.0905 19.6592 15.6268 19.6592V18.6882ZM23.1102 1H24.0813C24.0813 0.4637 23.6465 0.0289428 23.1102 0.0289428V1ZM23.1102 18.6882V19.6592C23.6465 19.6592 24.0813 19.2245 24.0813 18.6882H23.1102ZM1.08505 49.4368C0.548755 49.4368 0.113997 49.8715 0.113997 50.4078C0.113997 50.9441 0.548755 51.3789 1.08505 51.3789V49.4368ZM5.0819 50.4078H6.05296C6.05296 49.8715 5.6182 49.4368 5.0819 49.4368V50.4078ZM4.11085 68.096C4.11085 68.6323 4.5456 69.0671 5.0819 69.0671C5.6182 69.0671 6.05296 68.6323 6.05296 68.096H4.11085ZM15.6268 50.4078V49.4368C15.0905 49.4368 14.6557 49.8715 14.6557 50.4078H15.6268ZM15.6268 68.096H14.6557C14.6557 68.6323 15.0905 69.0671 15.6268 69.0671V68.096ZM23.1102 50.4078H24.0813C24.0813 49.8715 23.6465 49.4368 23.1102 49.4368V50.4078ZM23.1102 68.096V69.0671C23.6465 69.0671 24.0813 68.6323 24.0813 68.096H23.1102ZM18.6882 24.7754C18.1519 24.7754 17.7171 25.2101 17.7171 25.7464C17.7171 26.2827 18.1519 26.7175 18.6882 26.7175V24.7754ZM22.685 25.7464H23.6561C23.6561 25.2101 23.2213 24.7754 22.685 24.7754V25.7464ZM21.714 43.4346C21.714 43.9709 22.1487 44.4057 22.685 44.4057C23.2213 44.4057 23.6561 43.9709 23.6561 43.4346H21.714ZM33.2299 25.7464V24.7754C32.6936 24.7754 32.2589 25.2101 32.2589 25.7464H33.2299ZM33.2299 43.4346H32.2589C32.2589 43.9709 32.6936 44.4057 33.2299 44.4057V43.4346ZM40.7134 25.7464H41.6844C41.6844 25.2101 41.2497 24.7754 40.7134 24.7754V25.7464ZM40.7134 43.4346V44.4057C41.2497 44.4057 41.6844 43.9709 41.6844 43.4346H40.7134ZM50.8331 24.7754C50.2968 24.7754 49.862 25.2101 49.862 25.7464C49.862 26.2827 50.2968 26.7175 50.8331 26.7175V24.7754ZM54.8299 25.7464H55.801C55.801 25.2101 55.3662 24.7754 54.8299 24.7754V25.7464ZM53.8589 43.4346C53.8589 43.9709 54.2936 44.4057 54.8299 44.4057C55.3662 44.4057 55.801 43.9709 55.801 43.4346H53.8589ZM65.3748 25.7464V24.7754C64.8385 24.7754 64.4037 25.2101 64.4037 25.7464H65.3748ZM65.3748 43.4346H64.4037C64.4037 43.9709 64.8385 44.4057 65.3748 44.4057V43.4346ZM72.8582 25.7464H73.8293C73.8293 25.2101 73.3945 24.7754 72.8582 24.7754V25.7464ZM72.8582 43.4346V44.4057C73.3945 44.4057 73.8293 43.9709 73.8293 43.4346H72.8582ZM1.00002 25.7464V24.7754C0.463715 24.7754 0.0289581 25.2101 0.0289581 25.7464H1.00002ZM1.00002 43.4346H0.0289581C0.0289581 43.9709 0.463715 44.4057 1.00002 44.4057L1.00002 43.4346ZM8.48348 25.7464H9.45453C9.45453 25.2101 9.01978 24.7754 8.48348 24.7754V25.7464ZM8.48348 43.4346V44.4057C9.01978 44.4057 9.45453 43.9709 9.45453 43.4346H8.48348ZM32.8047 0.0289428C32.2684 0.0289428 31.8337 0.4637 31.8337 1C31.8337 1.5363 32.2684 1.97106 32.8047 1.97106V0.0289428ZM36.8016 1H37.7726C37.7726 0.4637 37.3379 0.0289428 36.8016 0.0289428V1ZM35.8305 18.6882C35.8305 19.2245 36.2653 19.6592 36.8016 19.6592C37.3379 19.6592 37.7726 19.2245 37.7726 18.6882H35.8305ZM47.3464 1V0.0289428C46.8101 0.0289428 46.3754 0.4637 46.3754 1L47.3464 1ZM47.3464 18.6882H46.3754C46.3754 19.2245 46.8101 19.6592 47.3464 19.6592V18.6882ZM54.8299 1H55.801C55.801 0.4637 55.3662 0.0289428 54.8299 0.0289428V1ZM54.8299 18.6882V19.6592C55.3662 19.6592 55.801 19.2245 55.801 18.6882H54.8299ZM32.8047 49.4368C32.2684 49.4368 31.8337 49.8715 31.8337 50.4078C31.8337 50.9441 32.2684 51.3789 32.8047 51.3789V49.4368ZM36.8016 50.4078H37.7726C37.7726 49.8715 37.3379 49.4368 36.8016 49.4368V50.4078ZM35.8305 68.096C35.8305 68.6323 36.2653 69.0671 36.8016 69.0671C37.3379 69.0671 37.7726 68.6323 37.7726 68.096H35.8305ZM47.3464 50.4078V49.4368C46.8101 49.4368 46.3754 49.8715 46.3754 50.4078H47.3464ZM47.3464 68.096H46.3754C46.3754 68.6323 46.8101 69.0671 47.3464 69.0671V68.096ZM54.8299 50.4078H55.801C55.801 49.8715 55.3662 49.4368 54.8299 49.4368V50.4078ZM54.8299 68.096V69.0671C55.3662 69.0671 55.801 68.6323 55.801 68.096H54.8299ZM64.4394 0.0289428C63.9031 0.0289428 63.4683 0.4637 63.4683 1C63.4683 1.5363 63.9031 1.97106 64.4394 1.97106V0.0289428ZM68.4362 1H69.4073C69.4073 0.4637 68.9725 0.0289428 68.4362 0.0289428V1ZM67.4651 18.6882C67.4651 19.2245 67.8999 19.6592 68.4362 19.6592C68.9725 19.6592 69.4073 19.2245 69.4073 18.6882H67.4651ZM64.4394 49.4368C63.9031 49.4368 63.4683 49.8715 63.4683 50.4078C63.4683 50.9441 63.9031 51.3789 64.4394 51.3789V49.4368ZM68.4362 50.4078H69.4073C69.4073 49.8715 68.9725 49.4368 68.4362 49.4368V50.4078ZM67.4651 68.096C67.4651 68.6323 67.8999 69.0671 68.4362 69.0671C68.9725 69.0671 69.4073 68.6323 69.4073 68.096H67.4651ZM1.08505 1.97106H5.0819V0.0289428H1.08505V1.97106ZM4.11085 1V18.6882H6.05296V1H4.11085ZM14.6557 1V18.6882H16.5978V1H14.6557ZM22.1392 1V18.6882H24.0813V1H22.1392ZM15.6268 1.97106H23.1102V0.0289428H15.6268V1.97106ZM15.6268 19.6592H23.1102V17.7171H15.6268V19.6592ZM1.08505 51.3789H5.0819V49.4368H1.08505V51.3789ZM4.11085 50.4078V68.096H6.05296V50.4078H4.11085ZM14.6557 50.4078V68.096H16.5978V50.4078H14.6557ZM22.1392 50.4078V68.096H24.0813V50.4078H22.1392ZM15.6268 51.3789H23.1102V49.4368H15.6268V51.3789ZM15.6268 69.0671H23.1102V67.125H15.6268V69.0671ZM18.6882 26.7175H22.685V24.7754H18.6882V26.7175ZM21.714 25.7464V43.4346H23.6561V25.7464H21.714ZM32.2589 25.7464V43.4346H34.201V25.7464H32.2589ZM39.7423 25.7464V43.4346H41.6844V25.7464H39.7423ZM33.2299 26.7175H40.7134V24.7754H33.2299V26.7175ZM33.2299 44.4057H40.7134V42.4636H33.2299V44.4057ZM50.8331 26.7175H54.8299V24.7754H50.8331V26.7175ZM53.8589 25.7464V43.4346H55.801V25.7464H53.8589ZM64.4037 25.7464V43.4346H66.3458V25.7464H64.4037ZM71.8872 25.7464V43.4346H73.8293V25.7464H71.8872ZM65.3748 26.7175H72.8582V24.7754H65.3748V26.7175ZM65.3748 44.4057H72.8582V42.4636H65.3748V44.4057ZM0.0289581 25.7464V43.4346H1.97107V25.7464H0.0289581ZM7.51242 25.7464V43.4346H9.45453V25.7464H7.51242ZM1.00002 26.7175H8.48348V24.7754H1.00002V26.7175ZM1.00002 44.4057H8.48348V42.4636H1.00002V44.4057ZM32.8047 1.97106H36.8016V0.0289428H32.8047V1.97106ZM35.8305 1V18.6882H37.7726V1H35.8305ZM46.3754 1V18.6882H48.3175V1H46.3754ZM53.8589 1V18.6882H55.801V1H53.8589ZM47.3464 1.97106H54.8299V0.0289428H47.3464V1.97106ZM47.3464 19.6592H54.8299V17.7171H47.3464V19.6592ZM32.8047 51.3789H36.8016V49.4368H32.8047V51.3789ZM35.8305 50.4078V68.096H37.7726V50.4078H35.8305ZM46.3754 50.4078V68.096H48.3175V50.4078H46.3754ZM53.8589 50.4078V68.096H55.801V50.4078H53.8589ZM47.3464 51.3789H54.8299V49.4368H47.3464V51.3789ZM47.3464 69.0671H54.8299V67.125H47.3464V69.0671ZM64.4394 1.97106H68.4362V0.0289428H64.4394V1.97106ZM67.4651 1V18.6882H69.4073V1H67.4651ZM64.4394 51.3789H68.4362V49.4368H64.4394V51.3789ZM67.4651 50.4078V68.096H69.4073V50.4078H67.4651Z" fill="white"/>
</svg>
