<svg width="85" height="85" viewBox="0 0 85 85" fill="none" xmlns="http://www.w3.org/2000/svg">
<path d="M16.6071 30.5366C17.1443 30.4084 17.4758 29.8689 17.3475 29.3318C17.2193 28.7946 16.6799 28.463 16.1427 28.5913L16.6071 30.5366ZM17.7275 32.193L18.2153 31.3201L17.7275 32.193ZM35.8854 2.4818L36.5496 1.73426C36.535 1.72135 36.5201 1.70885 36.5049 1.6968L35.8854 2.4818ZM16.4609 29.1789L17.4364 29.3987L16.4609 29.1789ZM39.0981 49.6342L39.1203 48.6344L39.0981 49.6342ZM19.7565 58.8199L20.6996 58.4874C20.6112 58.2365 20.4265 58.0313 20.1863 57.917L19.7565 58.8199ZM1.8155 65.5225L0.950161 65.0214C0.697842 65.457 0.808734 66.0123 1.20902 66.3176L1.8155 65.5225ZM17.7275 77.6597L18.5432 78.238C18.8548 77.7986 18.7623 77.1913 18.3339 76.8646L17.7275 77.6597ZM12.4167 83.4217C12.0973 83.8722 12.2036 84.4964 12.6542 84.8158C13.1047 85.1352 13.7289 85.0289 14.0483 84.5784L12.4167 83.4217ZM68.8573 28.5913C68.3201 28.463 67.7807 28.7946 67.6525 29.3318C67.5242 29.8689 67.8557 30.4084 68.3929 30.5366L68.8573 28.5913ZM67.2725 32.193L66.7847 31.3201L67.2725 32.193ZM49.1146 2.4818L48.4951 1.6968C48.4799 1.70885 48.465 1.72135 48.4504 1.73426L49.1146 2.4818ZM68.5391 29.1789L67.5636 29.3987L68.5391 29.1789ZM45.9019 49.6342L45.8797 48.6344L45.9019 49.6342ZM65.2434 58.8199L64.8137 57.917C64.5735 58.0313 64.3888 58.2365 64.3004 58.4874L65.2434 58.8199ZM83.1845 65.5225L83.791 66.3176C84.1913 66.0123 84.3022 65.457 84.0498 65.0214L83.1845 65.5225ZM67.2725 77.6597L66.6661 76.8646C66.2377 77.1913 66.1452 77.7986 66.4568 78.238L67.2725 77.6597ZM70.9517 84.5784C71.2711 85.0289 71.8953 85.1352 72.3458 84.8158C72.7964 84.4964 72.9027 83.8722 72.5833 83.4217L70.9517 84.5784ZM2 38.3497C2 37.8312 2.22638 37.2321 2.82197 36.5495C3.4212 35.8628 4.34904 35.1467 5.62138 34.4298C8.16476 32.9969 11.9077 31.6585 16.6071 30.5366L16.1427 28.5913C11.3569 29.7338 7.41242 31.1252 4.63965 32.6874C3.25391 33.4681 2.1165 34.316 1.31498 35.2346C0.509834 36.1574 0 37.2051 0 38.3497H2ZM42.5 36.1722C32.2845 36.1722 23.3861 34.2098 18.2153 31.3201L17.2396 33.066C22.8217 36.1855 32.1013 38.1722 42.5 38.1722V36.1722ZM35.2212 3.22934C36.2018 4.10065 38.8977 5.65562 42.5 5.65562V3.65562C39.4333 3.65562 37.2 2.31217 36.5496 1.73426L35.2212 3.22934ZM17.4364 29.3987C17.8275 27.6633 18.2977 25.7849 18.8407 23.8516L16.9152 23.3108C16.3624 25.2788 15.8838 27.1909 15.4853 28.9591L17.4364 29.3987ZM18.8407 23.8516C20.5941 17.6086 23.0779 10.8986 26.0528 6.54761C27.5471 4.36212 29.0795 2.90089 30.5879 2.3049C31.9979 1.74774 33.5236 1.89189 35.2659 3.26681L36.5049 1.6968C34.2809 -0.0582453 32.0127 -0.40859 29.8529 0.444839C27.7913 1.25944 25.9778 3.11389 24.4018 5.41879C21.2363 10.0486 18.6826 17.0182 16.9152 23.3108L18.8407 23.8516ZM42.5 27.4771C32.3805 27.4771 23.5512 25.5513 18.3587 22.7043L17.3972 24.458C22.9939 27.5266 32.1965 29.4771 42.5 29.4771V27.4771ZM18.2153 31.3201C17.5863 30.9686 17.2552 30.2029 17.4364 29.3987L15.4853 28.9591C15.1328 30.5236 15.7484 32.2326 17.2396 33.066L18.2153 31.3201ZM38.238 51.0304C38.238 54.3296 35.5623 57.0048 32.2609 57.0048V59.0048C36.6662 59.0048 40.238 55.4349 40.238 51.0304H38.238ZM32.2609 57.0048C28.9595 57.0048 26.2838 54.3296 26.2838 51.0304H24.2838C24.2838 55.4349 27.8557 59.0048 32.2609 59.0048V57.0048ZM26.2838 51.0304C26.2838 50.3297 26.4041 49.6592 26.6243 49.037L24.739 48.3697C24.444 49.2031 24.2838 50.0992 24.2838 51.0304H26.2838ZM42.5 48.6717C41.362 48.6717 40.2348 48.6591 39.1203 48.6344L39.076 50.6339C40.2053 50.6589 41.3473 50.6717 42.5 50.6717V48.6717ZM39.1203 48.6344C34.4087 48.5301 29.9246 48.2098 25.8019 47.7106L25.5615 49.6961C29.7533 50.2037 34.303 50.5283 39.076 50.6339L39.1203 48.6344ZM38.1182 49.8334C38.1966 50.2193 38.238 50.6195 38.238 51.0304H40.238C40.238 50.485 40.1831 49.9513 40.0781 49.435L38.1182 49.8334ZM25.8019 47.7106C21.5212 47.1923 17.6373 46.482 14.297 45.6235L13.7991 47.5605C17.2394 48.4448 21.2113 49.1694 25.5615 49.6961L25.8019 47.7106ZM14.297 45.6235C10.3267 44.603 7.1738 43.3855 5.03762 42.0643C2.84776 40.71 2 39.4258 2 38.3497H0C0 40.5221 1.65973 42.3268 3.98562 43.7653C6.3652 45.237 9.7363 46.5163 13.7991 47.5605L14.297 45.6235ZM18.8135 59.1525C20.318 63.4187 23.2738 69.8103 27.2788 75.157C31.244 80.4504 36.4506 85 42.5 85V83C37.4585 83 32.7735 79.1563 28.8796 73.958C25.0256 68.8129 22.1551 62.6145 20.6996 58.4874L18.8135 59.1525ZM13.0716 46.3761C12.6579 48.247 12.5884 51.4595 13.996 54.4458L15.8051 53.593C14.6269 51.0934 14.6835 48.3498 15.0244 46.8079L13.0716 46.3761ZM13.996 54.4458C14.9668 56.5053 16.6352 58.4417 19.3268 59.7229L20.1863 57.917C17.9448 56.85 16.5951 55.269 15.8051 53.593L13.996 54.4458ZM14.4479 53.1278C12.8712 53.9282 10.3396 55.4643 7.79211 57.5024C5.25154 59.535 2.63257 62.1165 0.950161 65.0214L2.68084 66.0237C4.18795 63.4216 6.59516 61.0214 9.04156 59.0641C11.481 57.1124 13.8972 55.6504 15.3533 54.9111L14.4479 53.1278ZM1.20902 66.3176L17.121 78.4548L18.3339 76.8646L2.42198 64.7274L1.20902 66.3176ZM16.9117 77.0813L12.4167 83.4217L14.0483 84.5784L18.5432 78.238L16.9117 77.0813ZM85 38.3497C85 37.2051 84.4902 36.1574 83.685 35.2346C82.8835 34.316 81.7461 33.4681 80.3604 32.6874C77.5876 31.1252 73.6431 29.7338 68.8573 28.5913L68.3929 30.5366C73.0923 31.6585 76.8352 32.9969 79.3786 34.4298C80.651 35.1467 81.5788 35.8628 82.178 36.5495C82.7736 37.2321 83 37.8312 83 38.3497H85ZM42.5 38.1722C52.8987 38.1722 62.1783 36.1855 67.7604 33.066L66.7847 31.3201C61.6139 34.2098 52.7155 36.1722 42.5 36.1722V38.1722ZM48.4504 1.73426C47.8 2.31217 45.5667 3.65562 42.5 3.65562V5.65562C46.1023 5.65562 48.7982 4.10065 49.7788 3.22934L48.4504 1.73426ZM69.5147 28.9591C69.1162 27.1909 68.6376 25.2788 68.0848 23.3108L66.1593 23.8516C66.7023 25.7849 67.1725 27.6633 67.5636 29.3987L69.5147 28.9591ZM68.0848 23.3108C66.3174 17.0182 63.7637 10.0486 60.5982 5.41879C59.0222 3.11389 57.2087 1.25944 55.1471 0.444839C52.9873 -0.40859 50.7191 -0.0582453 48.4951 1.6968L49.7341 3.26681C51.4764 1.89189 53.0021 1.74774 54.4122 2.3049C55.9205 2.90089 57.4529 4.36212 58.9472 6.54761C61.9221 10.8986 64.4059 17.6086 66.1593 23.8516L68.0848 23.3108ZM42.5 29.4771C52.8035 29.4771 62.0061 27.5266 67.6028 24.458L66.6413 22.7043C61.4488 25.5513 52.6195 27.4771 42.5 27.4771V29.4771ZM67.7604 33.066C69.2516 32.2326 69.8672 30.5236 69.5147 28.9591L67.5636 29.3987C67.7448 30.2029 67.4137 30.9686 66.7847 31.3201L67.7604 33.066ZM44.762 51.0304C44.762 55.4349 48.3338 59.0048 52.7391 59.0048V57.0048C49.4377 57.0048 46.762 54.3296 46.762 51.0304H44.762ZM52.7391 59.0048C57.1443 59.0048 60.7162 55.4349 60.7162 51.0304H58.7162C58.7162 54.3296 56.0405 57.0048 52.7391 57.0048V59.0048ZM60.7162 51.0304C60.7162 50.0992 60.556 49.2031 60.261 48.3697L58.3757 49.037C58.5959 49.6592 58.7162 50.3297 58.7162 51.0304H60.7162ZM42.5 50.6717C43.6527 50.6717 44.7947 50.6589 45.924 50.6339L45.8797 48.6344C44.7652 48.6591 43.638 48.6717 42.5 48.6717V50.6717ZM45.924 50.6339C50.697 50.5283 55.2467 50.2037 59.4385 49.6961L59.1981 47.7106C55.0754 48.2098 50.5913 48.5301 45.8797 48.6344L45.924 50.6339ZM44.9219 49.435C44.8169 49.9513 44.762 50.485 44.762 51.0304H46.762C46.762 50.6195 46.8034 50.2193 46.8818 49.8334L44.9219 49.435ZM59.4385 49.6961C63.7887 49.1694 67.7606 48.4448 71.2009 47.5605L70.703 45.6235C67.3627 46.482 63.4788 47.1923 59.1981 47.7106L59.4385 49.6961ZM71.2009 47.5605C75.2637 46.5163 78.6348 45.237 81.0144 43.7653C83.3403 42.3268 85 40.5221 85 38.3497H83C83 39.4258 82.1522 40.71 79.9624 42.0643C77.8262 43.3855 74.6733 44.603 70.703 45.6235L71.2009 47.5605ZM64.3004 58.4874C62.8449 62.6145 59.9744 68.8129 56.1204 73.958C52.2265 79.1563 47.5415 83 42.5 83V85C48.5494 85 53.756 80.4504 57.7212 75.157C61.7262 69.8103 64.682 63.4187 66.1865 59.1525L64.3004 58.4874ZM69.9756 46.8079C70.3165 48.3498 70.3731 51.0934 69.1949 53.593L71.004 54.4458C72.4116 51.4595 72.3421 48.247 71.9284 46.3761L69.9756 46.8079ZM69.1949 53.593C68.4049 55.269 67.0552 56.85 64.8137 57.917L65.6732 59.7229C68.3648 58.4417 70.0332 56.5053 71.004 54.4458L69.1949 53.593ZM69.6467 54.9111C71.1028 55.6504 73.519 57.1124 75.9584 59.0641C78.4048 61.0214 80.812 63.4216 82.3192 66.0237L84.0498 65.0214C82.3674 62.1165 79.7485 59.535 77.2079 57.5024C74.6604 55.4643 72.1288 53.9282 70.5521 53.1278L69.6467 54.9111ZM82.578 64.7274L66.6661 76.8646L67.879 78.4548L83.791 66.3176L82.578 64.7274ZM66.4568 78.238L70.9517 84.5784L72.5833 83.4217L68.0883 77.0813L66.4568 78.238Z" fill="white"/>
</svg>
