<svg width="78" height="78" viewBox="0 0 78 78" fill="none" xmlns="http://www.w3.org/2000/svg">
<path d="M32.3681 61.5865C32.9828 61.5865 33.4811 61.0882 33.4811 60.4735C33.4811 59.8588 32.9828 59.3604 32.3681 59.3604V61.5865ZM44.2139 44.8296C44.8189 44.7208 45.2211 44.1422 45.1123 43.5372C45.0036 42.9322 44.4249 42.5299 43.8199 42.6387L44.2139 44.8296ZM26.7619 75.2626C27.3746 75.3115 27.9109 74.8543 27.9597 74.2415C28.0086 73.6288 27.5514 73.0925 26.9386 73.0436L26.7619 75.2626ZM62.4207 29.0013C62.4207 29.616 62.919 30.1143 63.5337 30.1143C64.1484 30.1143 64.6468 29.616 64.6468 29.0013H62.4207ZM35.5358 68.3846L34.7487 67.5976C34.54 67.8064 34.4227 68.0895 34.4227 68.3846H35.5358ZM35.5358 75.903H34.4227C34.4227 76.5177 34.9211 77.016 35.5358 77.016V75.903ZM43.4038 75.903V77.016C44.0185 77.016 44.5168 76.5177 44.5168 75.903H43.4038ZM43.4038 74.5746V73.4616C42.7891 73.4616 42.2908 73.9599 42.2908 74.5746H43.4038ZM49.126 74.5746V75.6877C49.7407 75.6877 50.239 75.1893 50.239 74.5746H49.126ZM49.126 69.9764V68.8634C48.5113 68.8634 48.013 69.3617 48.013 69.9764H49.126ZM54.2351 69.9764V71.0894C54.8498 71.0894 55.3482 70.5911 55.3482 69.9764H54.2351ZM54.2351 65.276V64.163C53.6204 64.163 53.1221 64.6613 53.1221 65.276H54.2351ZM58.9355 65.276V66.3891C59.5502 66.3891 60.0485 65.8907 60.0485 65.276H58.9355ZM54.7461 56.645L55.5307 55.8556L54.7461 56.645ZM42.2194 67.5976C41.7847 68.0323 41.7847 68.737 42.2194 69.1717C42.6541 69.6063 43.3588 69.6063 43.7934 69.1717L42.2194 67.5976ZM68.7706 43.1763C69.2052 42.7417 69.2052 42.0369 68.7706 41.6023C68.3359 41.1676 67.6312 41.1676 67.1965 41.6023L68.7706 43.1763ZM64.9705 43.8283C64.5358 44.263 64.5358 44.9677 64.9705 45.4024C65.4051 45.837 66.1099 45.837 66.5445 45.4024L64.9705 43.8283ZM62.4207 15.1045C62.4207 16.6623 61.7173 18.2294 60.2771 19.7477C58.8313 21.2719 56.687 22.695 53.9523 23.9145C48.4856 26.3521 40.8554 27.8883 32.3681 27.8883V30.1143C41.0931 30.1143 49.0458 28.5396 54.8588 25.9475C57.764 24.6521 60.1837 23.0808 61.8921 21.2797C63.606 19.4729 64.6468 17.3841 64.6468 15.1045H62.4207ZM32.3681 27.8883C23.8808 27.8883 16.2506 26.3521 10.7839 23.9145C8.04923 22.695 5.90486 21.2719 4.45912 19.7477C3.0189 18.2294 2.31547 16.6623 2.31547 15.1045H0.0894357C0.0894357 17.3841 1.13018 19.4729 2.84409 21.2797C4.55249 23.0808 6.97221 24.6521 9.87738 25.9475C15.6904 28.5396 23.6431 30.1143 32.3681 30.1143V27.8883ZM2.31547 15.1045C2.31547 13.5466 3.0189 11.9795 4.45912 10.4612C5.90486 8.93704 8.04923 7.51388 10.7839 6.29447C16.2506 3.85686 23.8808 2.32067 32.3681 2.32067V0.0946313C23.6431 0.0946313 15.6904 1.66934 9.87738 4.26139C6.97221 5.55681 4.55249 7.12817 2.84409 8.92922C1.13018 10.7361 0.0894357 12.8248 0.0894357 15.1045H2.31547ZM32.3681 2.32067C40.8554 2.32067 48.4856 3.85686 53.9523 6.29447C56.687 7.51388 58.8313 8.93704 60.2771 10.4612C61.7173 11.9795 62.4207 13.5466 62.4207 15.1045H64.6468C64.6468 12.8248 63.606 10.7361 61.8921 8.92922C60.1837 7.12817 57.764 5.55681 54.8588 4.26139C49.0458 1.66934 41.0931 0.0946313 32.3681 0.0946313V2.32067ZM32.3681 43.6244C23.8808 43.6244 16.2506 42.0882 10.7839 39.6505C8.04923 38.4311 5.90486 37.008 4.45912 35.4838C3.0189 33.9655 2.31547 32.3984 2.31547 30.8406H0.0894357C0.0894357 33.1202 1.13018 35.2089 2.84409 37.0158C4.55249 38.8168 6.97221 40.3882 9.87738 41.6836C15.6904 44.2757 23.6431 45.8504 32.3681 45.8504V43.6244ZM32.3681 59.3604C23.8808 59.3604 16.2506 57.8242 10.7839 55.3866C8.04923 54.1672 5.90486 52.7441 4.45912 51.2199C3.0189 49.7016 2.31547 48.1345 2.31547 46.5767H0.0894357C0.0894357 48.8563 1.13018 50.945 2.84409 52.7519C4.55249 54.5529 6.97221 56.1243 9.87738 57.4197C15.6904 60.0118 23.6431 61.5865 32.3681 61.5865V59.3604ZM2.31547 60.4735V46.5767H0.0894357V60.4735H2.31547ZM2.31547 46.5767V30.8406H0.0894357V46.5767H2.31547ZM2.31547 30.8406V15.1045H0.0894357V30.8406H2.31547ZM43.8199 42.6387C40.289 43.2735 36.4233 43.6244 32.3681 43.6244V45.8504C36.5496 45.8504 40.5474 45.4888 44.2139 44.8296L43.8199 42.6387ZM26.9386 73.0436C19.7539 72.4713 13.4987 70.7879 9.07792 68.4565C4.58843 66.0889 2.31547 63.2463 2.31547 60.4735H0.0894357C0.0894357 64.536 3.3502 67.9525 8.03953 70.4255C12.7976 72.9347 19.3663 74.6735 26.7619 75.2626L26.9386 73.0436ZM62.4207 15.1045V29.0013H64.6468V15.1045H62.4207ZM74.887 47.8028C74.887 54.0731 69.804 59.1561 63.5337 59.1561V61.3821C71.0334 61.3821 77.113 55.3025 77.113 47.8028H74.887ZM52.1805 47.8028C52.1805 41.5326 57.2635 36.4496 63.5337 36.4496V34.2236C56.0341 34.2236 49.9545 40.3032 49.9545 47.8028H52.1805ZM63.5337 36.4496C69.804 36.4496 74.887 41.5326 74.887 47.8028H77.113C77.113 40.3032 71.0334 34.2236 63.5337 34.2236V36.4496ZM52.8709 51.7113C52.4246 50.4942 52.1805 49.1783 52.1805 47.8028H49.9545C49.9545 49.4436 50.2459 51.0187 50.7809 52.4777L52.8709 51.7113ZM51.0389 51.3075L34.7487 67.5976L36.3228 69.1717L52.6129 52.8815L51.0389 51.3075ZM34.4227 68.3846V75.903H36.6488V68.3846H34.4227ZM35.5358 77.016H43.4038V74.79H35.5358V77.016ZM44.5168 75.903V74.5746H42.2908V75.903H44.5168ZM43.4038 75.6877H49.126V73.4616H43.4038V75.6877ZM50.239 74.5746V69.9764H48.013V74.5746H50.239ZM49.126 71.0894H54.2351V68.8634H49.126V71.0894ZM55.3482 69.9764V65.276H53.1221V69.9764H55.3482ZM54.2351 66.3891H58.9355V64.163H54.2351V66.3891ZM63.5337 59.1561C62.0527 59.1561 60.6405 58.8731 59.3463 58.3592L58.5248 60.4281C60.0761 61.0441 61.7668 61.3821 63.5337 61.3821V59.1561ZM60.0485 65.276V59.3937H57.8225V65.276H60.0485ZM59.3463 58.3592C57.9074 57.7879 56.6119 56.9302 55.5307 55.8556L53.9615 57.4344C55.2528 58.7178 56.8016 59.7439 58.5248 60.4281L59.3463 58.3592ZM55.5307 55.8556C54.3634 54.6955 53.4476 53.2843 52.8709 51.7113L50.7809 52.4777C51.4718 54.3618 52.5674 56.049 53.9615 57.4344L55.5307 55.8556ZM53.959 55.858L42.2194 67.5976L43.7934 69.1717L55.5331 57.432L53.959 55.858ZM67.1965 41.6023L64.9705 43.8283L66.5445 45.4024L68.7706 43.1763L67.1965 41.6023Z" fill="white"/>
</svg>
