<svg width="95" height="83" viewBox="0 0 95 83" fill="none" xmlns="http://www.w3.org/2000/svg">
<path d="M1 75.0464L0.138066 74.5394C0.0476677 74.6931 0 74.8681 0 75.0464H1ZM32.9889 67.6782L32.0732 67.2762L32.9889 67.6782ZM93.9339 75.0464H94.9339C94.9339 74.8681 94.8862 74.6931 94.7958 74.5394L93.9339 75.0464ZM61.945 67.6782L62.8607 67.2762L61.945 67.6782ZM36.8599 19.7398C37.2454 19.3443 37.2374 18.7112 36.8419 18.3257C36.4464 17.9402 35.8133 17.9483 35.4278 18.3437L36.8599 19.7398ZM25.2436 30.2239L24.5275 29.5259C24.149 29.9142 24.149 30.5336 24.5275 30.9219L25.2436 30.2239ZM35.4278 42.1041C35.8133 42.4995 36.4464 42.5076 36.8419 42.1221C37.2374 41.7366 37.2454 41.1035 36.8599 40.708L35.4278 42.1041ZM57.98 40.708C57.5945 41.1035 57.6026 41.7366 57.998 42.1221C58.3935 42.5076 59.0266 42.4995 59.4121 42.1041L57.98 40.708ZM69.5963 30.2239L70.3124 30.9219C70.6909 30.5336 70.6909 29.9142 70.3124 29.5259L69.5963 30.2239ZM59.4121 18.3437C59.0266 17.9483 58.3935 17.9402 57.998 18.3257C57.6026 18.7112 57.5945 19.3443 57.98 19.7398L59.4121 18.3437ZM53.2423 17.9841C53.4366 17.4672 53.1751 16.8905 52.6581 16.6962C52.1412 16.5019 51.5646 16.7634 51.3702 17.2804L53.2423 17.9841ZM41.6916 43.0275C41.4972 43.5444 41.7588 44.1211 42.2757 44.3154C42.7927 44.5097 43.3693 44.2482 43.5637 43.7312L41.6916 43.0275ZM11.3968 59.0719V2.69142H9.39675V59.0719H11.3968ZM9.53482 58.5649L0.138066 74.5394L1.86193 75.5534L11.2587 59.5789L9.53482 58.5649ZM0 75.0464V81.8121H2V75.0464H0ZM1 76.0464H29.7541V74.0464H1V76.0464ZM30.6697 75.4484L33.9045 68.0802L32.0732 67.2762L28.8384 74.6444L30.6697 75.4484ZM15.9745 8.04756V52.2123H17.9745V8.04756H15.9745ZM17.3503 6.67169C16.5905 6.67169 15.9745 7.28769 15.9745 8.04756H17.9745C17.9745 8.39226 17.695 8.67169 17.3503 8.67169V6.67169ZM33.9045 68.0802C33.8349 68.2387 33.6782 68.3411 33.5051 68.3411V66.3411C32.8845 66.3411 32.3227 66.708 32.0732 67.2762L33.9045 68.0802ZM15.9745 52.2123C15.9745 52.9722 16.5905 53.5882 17.3503 53.5882V51.5882C17.695 51.5882 17.9745 51.8676 17.9745 52.2123H15.9745ZM0 81.8121C0 82.4681 0.531851 83 1.18794 83V81C1.63643 81 2 81.3636 2 81.8121H0ZM11.3968 2.69142C11.3968 2.30956 11.7063 2 12.0882 2V0C10.6017 0 9.39675 1.20499 9.39675 2.69142H11.3968ZM85.5371 59.0719V2.69142H83.5371V59.0719H85.5371ZM83.6752 59.5789L93.0719 75.5534L94.7958 74.5394L85.3991 58.5649L83.6752 59.5789ZM92.9339 75.0464V81.8121H94.9339V75.0464H92.9339ZM93.9339 74.0464H65.1798V76.0464H93.9339V74.0464ZM66.0955 74.6444L62.8607 67.2762L61.0294 68.0802L64.2642 75.4484L66.0955 74.6444ZM76.9594 8.04756V52.2123H78.9594V8.04756H76.9594ZM77.5835 8.67169C77.2388 8.67169 76.9594 8.39227 76.9594 8.04756H78.9594C78.9594 7.28769 78.3434 6.67169 77.5835 6.67169V8.67169ZM62.8607 67.2762C62.6112 66.708 62.0493 66.3411 61.4288 66.3411V68.3411C61.2557 68.3411 61.0989 68.2387 61.0294 68.0802L62.8607 67.2762ZM76.9594 52.2123C76.9594 51.8676 77.2388 51.5882 77.5835 51.5882V53.5882C78.3434 53.5882 78.9594 52.9722 78.9594 52.2123H76.9594ZM92.9339 81.8121C92.9339 81.3636 93.2974 81 93.7459 81V83C94.402 83 94.9339 82.4681 94.9339 81.8121H92.9339ZM85.5371 2.69142C85.5371 1.20499 84.3321 0 82.8457 0V2C83.2276 2 83.5371 2.30956 83.5371 2.69142H85.5371ZM35.4278 18.3437L24.5275 29.5259L25.9597 30.9219L36.8599 19.7398L35.4278 18.3437ZM24.5275 30.9219L35.4278 42.1041L36.8599 40.708L25.9597 29.5259L24.5275 30.9219ZM59.4121 42.1041L70.3124 30.9219L68.8802 29.5259L57.98 40.708L59.4121 42.1041ZM70.3124 29.5259L59.4121 18.3437L57.98 19.7398L68.8802 30.9219L70.3124 29.5259ZM51.3702 17.2804L41.6916 43.0275L43.5637 43.7312L53.2423 17.9841L51.3702 17.2804ZM12.0882 2H82.8457V0H12.0882V2ZM10.3968 60.0719H84.5371V58.0719H10.3968V60.0719ZM1.18794 83H93.7459V81H1.18794V83ZM29.7541 76.0464H65.1798V74.0464H29.7541V76.0464ZM33.5051 68.3411H61.4288V66.3411H33.5051V68.3411ZM77.5835 6.67169H17.3503V8.67169H77.5835V6.67169ZM17.3503 53.5882H77.5835V51.5882H17.3503V53.5882Z" fill="white"/>
</svg>
