<svg width="86" height="78" viewBox="0 0 86 78" fill="none" xmlns="http://www.w3.org/2000/svg">
<g opacity="0.3">
<path d="M2 7.62045L1.75741 6.48837L0.842216 6.68448V7.62045H2ZM28.2288 2L28.4408 0.861795L28.2129 0.81934L27.9862 0.867916L28.2288 2ZM28.2288 70.8259L28.4408 69.6877L28.2129 69.6452L27.9862 69.6938L28.2288 70.8259ZM2 76.4463H0.842216V77.8785L2.24259 77.5784L2 76.4463ZM58.4017 7.62045L58.1897 8.75866L58.4176 8.80111L58.6443 8.75253L58.4017 7.62045ZM58.4017 76.4463L58.1897 77.5845L58.4176 77.627L58.6443 77.5784L58.4017 76.4463ZM84.6305 2H85.7883V0.567836L84.3879 0.867916L84.6305 2ZM84.6305 70.8259L84.8731 71.9579L85.7883 71.7618V70.8259H84.6305ZM2.24259 8.75253L28.4714 3.13208L27.9862 0.867916L1.75741 6.48837L2.24259 8.75253ZM27.9862 69.6938L1.75741 75.3142L2.24259 77.5784L28.4714 71.9579L27.9862 69.6938ZM3.15778 76.4463V7.62045H0.842216V76.4463H3.15778ZM58.6137 6.48224L28.4408 0.861795L28.0167 3.13821L58.1897 8.75866L58.6137 6.48224ZM28.0167 71.9641L58.1897 77.5845L58.6137 75.3081L28.4408 69.6877L28.0167 71.9641ZM58.6443 8.75253L84.8731 3.13208L84.3879 0.867916L58.1591 6.48837L58.6443 8.75253ZM84.3879 69.6938L58.1591 75.3142L58.6443 77.5784L84.8731 71.9579L84.3879 69.6938ZM83.4727 2V70.8259H85.7883V2H83.4727Z" fill="white"/>
<path d="M28.2288 2.00008V70.8259M58.4018 60.8669V76.4464M58.4018 7.62053V23.1014" stroke="white" stroke-width="2.31557" stroke-linecap="round" stroke-dasharray="0.79 5.13"/>
<path d="M66.1004 34.9669C66.1004 36.1075 65.9474 37.0602 65.6414 37.8252C65.3493 38.5763 64.9668 39.237 64.4939 39.8073C64.021 40.3775 63.5202 40.8991 62.9917 41.372C62.4771 41.831 61.9833 42.3457 61.5104 42.9159C61.0375 43.4862 60.648 44.1538 60.342 44.9188C60.0499 45.6699 59.9039 46.6157 59.9039 47.7563V47.9649H56.4823V47.7563C56.4823 46.421 56.6283 45.3013 56.9204 44.3972C57.2264 43.4793 57.6158 42.7003 58.0888 42.0605C58.5617 41.4068 59.0624 40.8504 59.5909 40.3914C60.1195 39.9185 60.6132 39.4317 61.0722 38.931C61.5451 38.4303 61.9276 37.8739 62.2197 37.2619C62.5257 36.6499 62.6787 35.8849 62.6787 34.9669C62.6787 33.7707 62.3032 32.7902 61.5521 32.0252C60.801 31.2602 59.8274 30.8777 58.6312 30.8777C57.2403 30.8777 56.1415 31.3158 55.3348 32.1921C54.5419 33.0544 54.1455 34.3966 54.1455 36.2187V36.636H50.7239V36.2187C50.7239 33.5343 51.4472 31.4758 52.8937 30.0431C54.3542 28.6105 56.2667 27.8942 58.6312 27.8942C59.6883 27.8942 60.6758 28.075 61.5938 28.4366C62.5118 28.7844 63.2977 29.2712 63.9514 29.8971C64.619 30.523 65.1406 31.2671 65.5162 32.1295C65.9056 32.9918 66.1004 33.9377 66.1004 34.9669ZM56.065 53.0974C56.065 52.4436 56.2528 51.922 56.6283 51.5326C57.0178 51.1431 57.5393 50.9484 58.1931 50.9484C58.8468 50.9484 59.3614 51.1431 59.737 51.5326C60.1264 51.922 60.3212 52.4436 60.3212 53.0974C60.3212 53.7511 60.1264 54.2727 59.737 54.6621C59.3614 55.0377 58.8468 55.2254 58.1931 55.2254C57.5393 55.2254 57.0178 55.0377 56.6283 54.6621C56.2528 54.2727 56.065 53.7511 56.065 53.0974Z" fill="white"/>
</g>
</svg>
