<svg width="84" height="84" viewBox="0 0 84 84" fill="none" xmlns="http://www.w3.org/2000/svg">
<path d="M49.0661 1.60663L49.228 0.674638L49.0661 1.60663ZM35.154 82.431L34.9972 83.3639L35.154 82.431ZM49.0661 82.3934L49.228 83.3254L49.0661 82.3934ZM70.0055 71.945L70.6518 72.6358L70.0055 71.945ZM13.9945 71.945L13.3482 72.6358L13.9945 71.945ZM13.9945 12.055L13.3482 11.3642L13.9945 12.055ZM18.9115 42C18.9115 25.5762 25.5944 11.0942 35.7731 2.28425L34.535 0.853765C23.9024 10.0567 17.0196 25.0805 17.0196 42H18.9115ZM35.3108 2.50187C37.4855 2.13633 39.7201 1.94595 42 1.94595V0.0540541C39.6146 0.0540541 37.2751 0.253262 34.9972 0.636147L35.3108 2.50187ZM48.4461 2.32103C58.6009 11.1345 65.2653 25.599 65.2653 42H67.1572C67.1572 25.104 60.2935 10.0985 49.6861 0.892227L48.4461 2.32103ZM42 1.94595C44.3551 1.94595 46.6619 2.1491 48.9042 2.53861L49.228 0.674638C46.8793 0.266623 44.4641 0.0540541 42 0.0540541V1.94595ZM35.7731 81.7158C25.5944 72.9058 18.9115 58.4238 18.9115 42H17.0196C17.0196 58.9195 23.9024 73.9433 34.535 83.1462L35.7731 81.7158ZM42 82.0541C39.7201 82.0541 37.4855 81.8637 35.3108 81.4981L34.9972 83.3639C37.2751 83.7467 39.6146 83.9459 42 83.9459V82.0541ZM65.2653 42C65.2653 58.401 58.6009 72.8655 48.4461 81.679L49.6861 83.1078C60.2935 73.9015 67.1572 58.896 67.1572 42H65.2653ZM48.9042 81.4614C46.6619 81.8509 44.3551 82.0541 42 82.0541V83.9459C44.4641 83.9459 46.8793 83.7334 49.228 83.3254L48.9042 81.4614ZM82.0541 42C82.0541 53.5426 77.1728 63.9437 69.3592 71.2543L70.6518 72.6358C78.8317 64.9825 83.9459 54.0877 83.9459 42H82.0541ZM69.3592 71.2543C63.7916 76.4635 56.7378 80.1006 48.9042 81.4614L49.228 83.3254C57.4353 81.8996 64.8232 78.0891 70.6518 72.6358L69.3592 71.2543ZM42 65.7434C52.679 65.7434 62.3532 68.4215 69.5159 72.7544L70.4951 71.1356C62.9998 66.6016 52.9779 63.8515 42 63.8515V65.7434ZM35.3108 81.4981C27.3913 80.1669 20.2593 76.5111 14.6408 71.2543L13.3482 72.6358C19.2301 78.139 26.6999 81.9691 34.9972 83.3639L35.3108 81.4981ZM14.6408 71.2543C6.82719 63.9437 1.94595 53.5426 1.94595 42H0.0540541C0.0540541 54.0877 5.16828 64.9824 13.3482 72.6358L14.6408 71.2543ZM14.4841 72.7544C21.6468 68.4215 31.321 65.7434 42 65.7434V63.8515C31.0221 63.8515 21.0002 66.6016 13.5049 71.1356L14.4841 72.7544ZM1.94595 42C1.94595 30.4574 6.82719 20.0563 14.6408 12.7457L13.3482 11.3642C5.16828 19.0175 0.0540541 29.9123 0.0540541 42H1.94595ZM14.6408 12.7457C20.2593 7.48892 27.3913 3.83306 35.3108 2.50187L34.9972 0.636147C26.6999 2.03086 19.2301 5.86103 13.3482 11.3642L14.6408 12.7457ZM42 18.2566C31.321 18.2566 21.6468 15.5785 14.4841 11.2456L13.5049 12.8643C21.0002 17.3984 31.0221 20.1485 42 20.1485V18.2566ZM48.9042 2.53861C56.7378 3.89942 63.7916 7.53653 69.3592 12.7457L70.6518 11.3642C64.8232 5.91088 57.4353 2.10038 49.228 0.674638L48.9042 2.53861ZM69.3592 12.7457C77.1728 20.0563 82.0541 30.4574 82.0541 42H83.9459C83.9459 29.9123 78.8317 19.0175 70.6518 11.3642L69.3592 12.7457ZM69.5159 11.2456C62.3532 15.5785 52.679 18.2566 42 18.2566V20.1485C52.9779 20.1485 62.9998 17.3984 70.4951 12.8643L69.5159 11.2456ZM1 42.9459H83V41.0541H1V42.9459ZM41.0541 1V83H42.9459V1H41.0541Z" fill="white"/>
</svg>
